<?xml version="1.0" encoding="utf-8"?>
<!-- Generator: Adobe Illustrator 19.2.1, SVG Export Plug-In . SVG Version: 6.00 Build 0)  -->
<!DOCTYPE svg PUBLIC "-//W3C//DTD SVG 1.1//EN" "http://www.w3.org/Graphics/SVG/1.1/DTD/svg11.dtd">
<svg version="1.1" id="Layer_1" xmlns="http://www.w3.org/2000/svg" xmlns:xlink="http://www.w3.org/1999/xlink" x="0px" y="0px"
	 viewBox="0 0 175 175" style="enable-background:new 0 0 175 175;" xml:space="preserve">
<style type="text/css">
	.st0{fill:#FFFFFF;}
	.st1{fill:none;stroke:#1D1D1B;stroke-miterlimit:10;}
	.st2{clip-path:url(#SVGID_2_);}
	.st3{fill:none;stroke:#000000;stroke-linecap:square;stroke-miterlimit:10;}
	.st4{clip-path:url(#SVGID_4_);}
	.st5{clip-path:url(#SVGID_6_);}
	.st6{fill:none;stroke:#000000;stroke-miterlimit:10;}
	.st7{clip-path:url(#SVGID_8_);}
	.st8{clip-path:url(#SVGID_10_);}
	.st9{clip-path:url(#SVGID_12_);}
	.st10{fill:#817FE2;}
	.st11{fill:none;stroke:#8989E0;stroke-width:4;stroke-linecap:round;stroke-miterlimit:10;stroke-dasharray:34,9,11,7,1,6;}
	.st12{fill:#6363B7;}
	.st13{fill:#5959AA;}
	.st14{fill:none;stroke:#8585E0;stroke-width:4;stroke-linecap:round;stroke-miterlimit:10;stroke-dasharray:12,8;}
	.st15{fill:none;stroke:#8585E0;stroke-width:4;stroke-linecap:round;stroke-miterlimit:10;stroke-dasharray:18,9,11,9,8;}
	.st16{fill:#D4145A;}
	.st17{fill:#EF4B96;}
	.st18{fill:#B17F4A;}
	.st19{fill:#936037;}
	.st20{fill:#2FAC66;}
	.st21{fill:#2B9958;}
	.st22{fill:#F4162C;}
	.st23{fill:#E30613;}
	.st24{fill:#C60517;}
</style>
<g>
	<defs>
		<path id="SVGID_7_" d="M-213,56V0h175v56H-213z M-213,117v57h175v-57H-213z"/>
	</defs>
	<clipPath id="SVGID_2_">
		<use xlink:href="#SVGID_7_"  style="overflow:visible;"/>
	</clipPath>
	<g class="st2">
		<line class="st3" x1="0.7" y1="-1.7" x2="-182.4" y2="181.4"/>
		<line class="st3" x1="11.5" y1="-1.7" x2="-171.5" y2="181.4"/>
		<line class="st3" x1="22.4" y1="-1.7" x2="-160.7" y2="181.4"/>
		<line class="st3" x1="33.3" y1="-1.7" x2="-149.8" y2="181.4"/>
		<line class="st3" x1="44.1" y1="-1.7" x2="-138.9" y2="181.4"/>
		<line class="st3" x1="55" y1="-1.7" x2="-128.1" y2="181.4"/>
		<line class="st3" x1="65.9" y1="-1.7" x2="-117.2" y2="181.4"/>
		<line class="st3" x1="76.7" y1="-1.7" x2="-106.3" y2="181.4"/>
		<line class="st3" x1="87.6" y1="-1.7" x2="-95.5" y2="181.4"/>
		<line class="st3" x1="98.4" y1="-1.7" x2="-84.6" y2="181.4"/>
		<line class="st3" x1="109.3" y1="-1.7" x2="-73.8" y2="181.4"/>
		<line class="st3" x1="120.2" y1="-1.7" x2="-62.9" y2="181.4"/>
		<line class="st3" x1="131" y1="-1.7" x2="-52" y2="181.4"/>
	</g>
</g>
<g>
	<defs>
		<path id="SVGID_9_" d="M0,57V0h175v57H0z M0,118v57h175v-57H0z"/>
	</defs>
	<clipPath id="SVGID_4_">
		<use xlink:href="#SVGID_9_"  style="overflow:visible;"/>
	</clipPath>
	<g class="st4">
		<g>
			<g>
				<g>
					<g>
						<line class="st6" x1="4.4" y1="25.5" x2="11.6" y2="18.4"/>
						<line class="st6" x1="4.4" y1="18.4" x2="11.6" y2="25.5"/>
					</g>
					<g>
						<line class="st6" x1="4.4" y1="54.7" x2="11.6" y2="47.6"/>
						<line class="st6" x1="4.4" y1="47.6" x2="11.6" y2="54.7"/>
					</g>
					<g>
						<line class="st6" x1="4.4" y1="83.9" x2="11.6" y2="76.8"/>
						<line class="st6" x1="4.4" y1="76.8" x2="11.6" y2="83.9"/>
					</g>
					<g>
						<line class="st6" x1="4.4" y1="113" x2="11.6" y2="105.9"/>
						<line class="st6" x1="4.4" y1="105.9" x2="11.6" y2="113"/>
					</g>
					<g>
						<line class="st6" x1="4.4" y1="142.2" x2="11.6" y2="135.1"/>
						<line class="st6" x1="4.4" y1="135.1" x2="11.6" y2="142.2"/>
					</g>
					<g>
						<line class="st6" x1="4.4" y1="171.4" x2="11.6" y2="164.3"/>
						<line class="st6" x1="4.4" y1="164.3" x2="11.6" y2="171.4"/>
					</g>
				</g>
				<g>
					<g>
						<line class="st6" x1="33.6" y1="25.5" x2="40.8" y2="18.4"/>
						<line class="st6" x1="33.6" y1="18.4" x2="40.8" y2="25.5"/>
					</g>
					<g>
						<line class="st6" x1="33.6" y1="54.7" x2="40.8" y2="47.6"/>
						<line class="st6" x1="33.6" y1="47.6" x2="40.8" y2="54.7"/>
					</g>
					<g>
						<line class="st6" x1="33.6" y1="83.9" x2="40.8" y2="76.8"/>
						<line class="st6" x1="33.6" y1="76.8" x2="40.8" y2="83.9"/>
					</g>
					<g>
						<line class="st6" x1="33.6" y1="113" x2="40.8" y2="105.9"/>
						<line class="st6" x1="33.6" y1="105.9" x2="40.8" y2="113"/>
					</g>
					<g>
						<line class="st6" x1="33.6" y1="142.2" x2="40.8" y2="135.1"/>
						<line class="st6" x1="33.6" y1="135.1" x2="40.8" y2="142.2"/>
					</g>
					<g>
						<line class="st6" x1="33.6" y1="171.4" x2="40.8" y2="164.3"/>
						<line class="st6" x1="33.6" y1="164.3" x2="40.8" y2="171.4"/>
					</g>
				</g>
				<g>
					<g>
						<line class="st6" x1="62.8" y1="25.5" x2="70" y2="18.4"/>
						<line class="st6" x1="62.8" y1="18.4" x2="70" y2="25.5"/>
					</g>
					<g>
						<line class="st6" x1="62.8" y1="54.7" x2="70" y2="47.6"/>
						<line class="st6" x1="62.8" y1="47.6" x2="70" y2="54.7"/>
					</g>
					<g>
						<line class="st6" x1="62.8" y1="83.9" x2="70" y2="76.8"/>
						<line class="st6" x1="62.8" y1="76.8" x2="70" y2="83.9"/>
					</g>
					<g>
						<line class="st6" x1="62.8" y1="113" x2="70" y2="105.9"/>
						<line class="st6" x1="62.8" y1="105.9" x2="70" y2="113"/>
					</g>
					<g>
						<line class="st6" x1="62.8" y1="142.2" x2="70" y2="135.1"/>
						<line class="st6" x1="62.8" y1="135.1" x2="70" y2="142.2"/>
					</g>
					<g>
						<line class="st6" x1="62.8" y1="171.4" x2="70" y2="164.3"/>
						<line class="st6" x1="62.8" y1="164.3" x2="70" y2="171.4"/>
					</g>
				</g>
				<g>
					<g>
						<line class="st6" x1="92" y1="25.5" x2="99.2" y2="18.4"/>
						<line class="st6" x1="92" y1="18.4" x2="99.2" y2="25.5"/>
					</g>
					<g>
						<line class="st6" x1="92" y1="54.7" x2="99.2" y2="47.6"/>
						<line class="st6" x1="92" y1="47.6" x2="99.2" y2="54.7"/>
					</g>
					<g>
						<line class="st6" x1="92" y1="83.9" x2="99.2" y2="76.8"/>
						<line class="st6" x1="92" y1="76.8" x2="99.2" y2="83.9"/>
					</g>
					<g>
						<line class="st6" x1="92" y1="113" x2="99.2" y2="105.9"/>
						<line class="st6" x1="92" y1="105.9" x2="99.2" y2="113"/>
					</g>
					<g>
						<line class="st6" x1="92" y1="142.2" x2="99.2" y2="135.1"/>
						<line class="st6" x1="92" y1="135.1" x2="99.2" y2="142.2"/>
					</g>
					<g>
						<line class="st6" x1="92" y1="171.4" x2="99.2" y2="164.3"/>
						<line class="st6" x1="92" y1="164.3" x2="99.2" y2="171.4"/>
					</g>
				</g>
				<g>
					<g>
						<line class="st6" x1="121.2" y1="25.5" x2="128.4" y2="18.4"/>
						<line class="st6" x1="121.2" y1="18.4" x2="128.4" y2="25.5"/>
					</g>
					<g>
						<line class="st6" x1="121.2" y1="54.7" x2="128.4" y2="47.6"/>
						<line class="st6" x1="121.2" y1="47.6" x2="128.4" y2="54.7"/>
					</g>
					<g>
						<line class="st6" x1="121.2" y1="83.9" x2="128.4" y2="76.8"/>
						<line class="st6" x1="121.2" y1="76.8" x2="128.4" y2="83.9"/>
					</g>
					<g>
						<line class="st6" x1="121.2" y1="113" x2="128.4" y2="105.9"/>
						<line class="st6" x1="121.2" y1="105.9" x2="128.4" y2="113"/>
					</g>
					<g>
						<line class="st6" x1="121.2" y1="142.2" x2="128.4" y2="135.1"/>
						<line class="st6" x1="121.2" y1="135.1" x2="128.4" y2="142.2"/>
					</g>
					<g>
						<line class="st6" x1="121.2" y1="171.4" x2="128.4" y2="164.3"/>
						<line class="st6" x1="121.2" y1="164.3" x2="128.4" y2="171.4"/>
					</g>
				</g>
				<g>
					<g>
						<line class="st6" x1="150.4" y1="25.5" x2="157.6" y2="18.4"/>
						<line class="st6" x1="150.4" y1="18.4" x2="157.6" y2="25.5"/>
					</g>
					<g>
						<line class="st6" x1="150.4" y1="54.7" x2="157.6" y2="47.6"/>
						<line class="st6" x1="150.4" y1="47.6" x2="157.6" y2="54.7"/>
					</g>
					<g>
						<line class="st6" x1="150.4" y1="83.9" x2="157.6" y2="76.8"/>
						<line class="st6" x1="150.4" y1="76.8" x2="157.6" y2="83.9"/>
					</g>
					<g>
						<line class="st6" x1="150.4" y1="113" x2="157.6" y2="105.9"/>
						<line class="st6" x1="150.4" y1="105.9" x2="157.6" y2="113"/>
					</g>
					<g>
						<line class="st6" x1="150.4" y1="142.2" x2="157.6" y2="135.1"/>
						<line class="st6" x1="150.4" y1="135.1" x2="157.6" y2="142.2"/>
					</g>
					<g>
						<line class="st6" x1="150.4" y1="171.4" x2="157.6" y2="164.3"/>
						<line class="st6" x1="150.4" y1="164.3" x2="157.6" y2="171.4"/>
					</g>
				</g>
			</g>
		</g>
		<g>
			<g>
				<g>
					<g>
						<line class="st6" x1="19.4" y1="11.4" x2="26.6" y2="4.3"/>
						<line class="st6" x1="19.4" y1="4.3" x2="26.6" y2="11.4"/>
					</g>
					<g>
						<line class="st6" x1="19.4" y1="40.5" x2="26.6" y2="33.4"/>
						<line class="st6" x1="19.4" y1="33.4" x2="26.6" y2="40.5"/>
					</g>
					<g>
						<line class="st6" x1="19.4" y1="69.7" x2="26.6" y2="62.6"/>
						<line class="st6" x1="19.4" y1="62.6" x2="26.6" y2="69.7"/>
					</g>
					<g>
						<line class="st6" x1="19.4" y1="98.9" x2="26.6" y2="91.8"/>
						<line class="st6" x1="19.4" y1="91.8" x2="26.6" y2="98.9"/>
					</g>
					<g>
						<line class="st6" x1="19.4" y1="128" x2="26.6" y2="120.9"/>
						<line class="st6" x1="19.4" y1="120.9" x2="26.6" y2="128"/>
					</g>
					<g>
						<line class="st6" x1="19.4" y1="157.2" x2="26.6" y2="150.1"/>
						<line class="st6" x1="19.4" y1="150.1" x2="26.6" y2="157.2"/>
					</g>
				</g>
				<g>
					<g>
						<line class="st6" x1="48.6" y1="11.4" x2="55.8" y2="4.3"/>
						<line class="st6" x1="48.6" y1="4.3" x2="55.8" y2="11.4"/>
					</g>
					<g>
						<line class="st6" x1="48.6" y1="40.5" x2="55.8" y2="33.4"/>
						<line class="st6" x1="48.6" y1="33.4" x2="55.8" y2="40.5"/>
					</g>
					<g>
						<line class="st6" x1="48.6" y1="69.7" x2="55.8" y2="62.6"/>
						<line class="st6" x1="48.6" y1="62.6" x2="55.8" y2="69.7"/>
					</g>
					<g>
						<line class="st6" x1="48.6" y1="98.9" x2="55.8" y2="91.8"/>
						<line class="st6" x1="48.6" y1="91.8" x2="55.8" y2="98.9"/>
					</g>
					<g>
						<line class="st6" x1="48.6" y1="128" x2="55.8" y2="120.9"/>
						<line class="st6" x1="48.6" y1="120.9" x2="55.8" y2="128"/>
					</g>
					<g>
						<line class="st6" x1="48.6" y1="157.2" x2="55.8" y2="150.1"/>
						<line class="st6" x1="48.6" y1="150.1" x2="55.8" y2="157.2"/>
					</g>
				</g>
				<g>
					<g>
						<line class="st6" x1="77.8" y1="11.4" x2="85" y2="4.3"/>
						<line class="st6" x1="77.8" y1="4.3" x2="85" y2="11.4"/>
					</g>
					<g>
						<line class="st6" x1="77.8" y1="40.5" x2="85" y2="33.4"/>
						<line class="st6" x1="77.8" y1="33.4" x2="85" y2="40.5"/>
					</g>
					<g>
						<line class="st6" x1="77.8" y1="69.7" x2="85" y2="62.6"/>
						<line class="st6" x1="77.8" y1="62.6" x2="85" y2="69.7"/>
					</g>
					<g>
						<line class="st6" x1="77.8" y1="98.9" x2="85" y2="91.8"/>
						<line class="st6" x1="77.8" y1="91.8" x2="85" y2="98.9"/>
					</g>
					<g>
						<line class="st6" x1="77.8" y1="128" x2="85" y2="120.9"/>
						<line class="st6" x1="77.8" y1="120.9" x2="85" y2="128"/>
					</g>
					<g>
						<line class="st6" x1="77.8" y1="157.2" x2="85" y2="150.1"/>
						<line class="st6" x1="77.8" y1="150.1" x2="85" y2="157.2"/>
					</g>
				</g>
				<g>
					<g>
						<line class="st6" x1="107" y1="11.4" x2="114.2" y2="4.3"/>
						<line class="st6" x1="107" y1="4.3" x2="114.2" y2="11.4"/>
					</g>
					<g>
						<line class="st6" x1="107" y1="40.5" x2="114.2" y2="33.4"/>
						<line class="st6" x1="107" y1="33.4" x2="114.2" y2="40.5"/>
					</g>
					<g>
						<line class="st6" x1="107" y1="69.7" x2="114.2" y2="62.6"/>
						<line class="st6" x1="107" y1="62.6" x2="114.2" y2="69.7"/>
					</g>
					<g>
						<line class="st6" x1="107" y1="98.9" x2="114.2" y2="91.8"/>
						<line class="st6" x1="107" y1="91.8" x2="114.2" y2="98.9"/>
					</g>
					<g>
						<line class="st6" x1="107" y1="128" x2="114.2" y2="120.9"/>
						<line class="st6" x1="107" y1="120.9" x2="114.2" y2="128"/>
					</g>
					<g>
						<line class="st6" x1="107" y1="157.2" x2="114.2" y2="150.1"/>
						<line class="st6" x1="107" y1="150.1" x2="114.2" y2="157.2"/>
					</g>
				</g>
				<g>
					<g>
						<line class="st6" x1="136.2" y1="11.4" x2="143.4" y2="4.3"/>
						<line class="st6" x1="136.2" y1="4.3" x2="143.4" y2="11.4"/>
					</g>
					<g>
						<line class="st6" x1="136.2" y1="40.5" x2="143.4" y2="33.4"/>
						<line class="st6" x1="136.2" y1="33.4" x2="143.4" y2="40.5"/>
					</g>
					<g>
						<line class="st6" x1="136.2" y1="69.7" x2="143.4" y2="62.6"/>
						<line class="st6" x1="136.2" y1="62.6" x2="143.4" y2="69.7"/>
					</g>
					<g>
						<line class="st6" x1="136.2" y1="98.9" x2="143.4" y2="91.8"/>
						<line class="st6" x1="136.2" y1="91.8" x2="143.4" y2="98.9"/>
					</g>
					<g>
						<line class="st6" x1="136.2" y1="128" x2="143.4" y2="120.9"/>
						<line class="st6" x1="136.2" y1="120.9" x2="143.4" y2="128"/>
					</g>
					<g>
						<line class="st6" x1="136.2" y1="157.2" x2="143.4" y2="150.1"/>
						<line class="st6" x1="136.2" y1="150.1" x2="143.4" y2="157.2"/>
					</g>
				</g>
				<g>
					<g>
						<line class="st6" x1="165.4" y1="11.4" x2="172.6" y2="4.3"/>
						<line class="st6" x1="165.4" y1="4.3" x2="172.6" y2="11.4"/>
					</g>
					<g>
						<line class="st6" x1="165.4" y1="40.5" x2="172.6" y2="33.4"/>
						<line class="st6" x1="165.4" y1="33.4" x2="172.6" y2="40.5"/>
					</g>
					<g>
						<line class="st6" x1="165.4" y1="69.7" x2="172.6" y2="62.6"/>
						<line class="st6" x1="165.4" y1="62.6" x2="172.6" y2="69.7"/>
					</g>
					<g>
						<line class="st6" x1="165.4" y1="98.9" x2="172.6" y2="91.8"/>
						<line class="st6" x1="165.4" y1="91.8" x2="172.6" y2="98.9"/>
					</g>
					<g>
						<line class="st6" x1="165.4" y1="128" x2="172.6" y2="120.9"/>
						<line class="st6" x1="165.4" y1="120.9" x2="172.6" y2="128"/>
					</g>
					<g>
						<line class="st6" x1="165.4" y1="157.2" x2="172.6" y2="150.1"/>
						<line class="st6" x1="165.4" y1="150.1" x2="172.6" y2="157.2"/>
					</g>
				</g>
			</g>
		</g>
	</g>
</g>
</svg>
