<?xml version="1.0" encoding="utf-8"?>
<!-- Generator: Adobe Illustrator 19.2.1, SVG Export Plug-In . SVG Version: 6.00 Build 0)  -->
<!DOCTYPE svg PUBLIC "-//W3C//DTD SVG 1.1//EN" "http://www.w3.org/Graphics/SVG/1.1/DTD/svg11.dtd">
<svg version="1.1" id="Layer_1" xmlns="http://www.w3.org/2000/svg" xmlns:xlink="http://www.w3.org/1999/xlink" x="0px" y="0px"
	 viewBox="0 0 175 350" style="enable-background:new 0 0 175 350;" xml:space="preserve">
<style type="text/css">
	.st0{fill:url(#SVGID_1_);}
	.st1{fill:#FFFFFF;}
	.st2{opacity:0.25;clip-path:url(#SVGID_3_);}
	.st3{fill:none;stroke:#000000;stroke-width:2;stroke-linecap:square;stroke-miterlimit:10;}
	.st4{fill:none;stroke:#1D1D1B;stroke-miterlimit:10;}
	.st5{clip-path:url(#SVGID_5_);}
	.st6{fill:none;stroke:#000000;stroke-linecap:square;stroke-miterlimit:10;}
	.st7{clip-path:url(#SVGID_7_);}
	.st8{clip-path:url(#SVGID_9_);}
	.st9{fill:none;stroke:#000000;stroke-miterlimit:10;}
	.st10{clip-path:url(#SVGID_11_);}
	.st11{clip-path:url(#SVGID_13_);}
	.st12{clip-path:url(#SVGID_13_);fill:none;stroke:#000000;stroke-linecap:square;stroke-miterlimit:10;}
	.st13{clip-path:url(#SVGID_15_);}
	.st14{clip-path:url(#SVGID_17_);}
	.st15{clip-path:url(#SVGID_19_);}
	.st16{clip-path:url(#SVGID_21_);}
	.st17{clip-path:url(#SVGID_23_);}
	.st18{clip-path:url(#SVGID_25_);}
	.st19{fill:#817FE2;}
	.st20{fill:none;stroke:#8989E0;stroke-width:4;stroke-linecap:round;stroke-miterlimit:10;stroke-dasharray:34,9,11,7,1,6;}
	.st21{fill:#6363B7;}
	.st22{fill:#5959AA;}
	.st23{fill:none;stroke:#8585E0;stroke-width:4;stroke-linecap:round;stroke-miterlimit:10;stroke-dasharray:12,8;}
	.st24{fill:none;stroke:#8585E0;stroke-width:4;stroke-linecap:round;stroke-miterlimit:10;stroke-dasharray:18,9,11,9,8;}
	.st25{fill:#D4145A;}
	.st26{fill:#EF4B96;}
	.st27{fill:#B17F4A;}
	.st28{fill:#936037;}
	.st29{fill:#2FAC66;}
	.st30{fill:#2B9958;}
	.st31{fill:#F4162C;}
	.st32{fill:#E30613;}
	.st33{fill:#C60517;}
	.st34{clip-path:url(#SVGID_27_);}
	.st35{clip-path:url(#SVGID_29_);}
	.st36{clip-path:url(#SVGID_31_);}
	.st37{clip-path:url(#SVGID_33_);}
	.st38{clip-path:url(#SVGID_35_);}
	.st39{clip-path:url(#SVGID_37_);}
	.st40{clip-path:url(#SVGID_39_);}
	.st41{clip-path:url(#SVGID_41_);}
	.st42{fill:#1D1D1B;}
</style>
<g>
	<defs>
		<path id="SVGID_20_" d="M0,57V0h175v57H0z M0,118v57h175v-57H0z"/>
	</defs>
	<clipPath id="SVGID_1_">
		<use xlink:href="#SVGID_20_"  style="overflow:visible;"/>
	</clipPath>
	<g style="clip-path:url(#SVGID_1_);">
		<g>
			<g>
				<g>
					<g>
						<line class="st9" x1="4.4" y1="25.5" x2="11.6" y2="18.4"/>
						<line class="st9" x1="4.4" y1="18.4" x2="11.6" y2="25.5"/>
					</g>
					<g>
						<line class="st9" x1="4.4" y1="54.7" x2="11.6" y2="47.6"/>
						<line class="st9" x1="4.4" y1="47.6" x2="11.6" y2="54.7"/>
					</g>
					<g>
						<line class="st9" x1="4.4" y1="83.9" x2="11.6" y2="76.8"/>
						<line class="st9" x1="4.4" y1="76.8" x2="11.6" y2="83.9"/>
					</g>
					<g>
						<line class="st9" x1="4.4" y1="113" x2="11.6" y2="105.9"/>
						<line class="st9" x1="4.4" y1="105.9" x2="11.6" y2="113"/>
					</g>
					<g>
						<line class="st9" x1="4.4" y1="142.2" x2="11.6" y2="135.1"/>
						<line class="st9" x1="4.4" y1="135.1" x2="11.6" y2="142.2"/>
					</g>
					<g>
						<line class="st9" x1="4.4" y1="171.4" x2="11.6" y2="164.3"/>
						<line class="st9" x1="4.4" y1="164.3" x2="11.6" y2="171.4"/>
					</g>
				</g>
				<g>
					<g>
						<line class="st9" x1="33.6" y1="25.5" x2="40.8" y2="18.4"/>
						<line class="st9" x1="33.6" y1="18.4" x2="40.8" y2="25.5"/>
					</g>
					<g>
						<line class="st9" x1="33.6" y1="54.7" x2="40.8" y2="47.6"/>
						<line class="st9" x1="33.6" y1="47.6" x2="40.8" y2="54.7"/>
					</g>
					<g>
						<line class="st9" x1="33.6" y1="83.9" x2="40.8" y2="76.8"/>
						<line class="st9" x1="33.6" y1="76.8" x2="40.8" y2="83.9"/>
					</g>
					<g>
						<line class="st9" x1="33.6" y1="113" x2="40.8" y2="105.9"/>
						<line class="st9" x1="33.6" y1="105.9" x2="40.8" y2="113"/>
					</g>
					<g>
						<line class="st9" x1="33.6" y1="142.2" x2="40.8" y2="135.1"/>
						<line class="st9" x1="33.6" y1="135.1" x2="40.8" y2="142.2"/>
					</g>
					<g>
						<line class="st9" x1="33.6" y1="171.4" x2="40.8" y2="164.3"/>
						<line class="st9" x1="33.6" y1="164.3" x2="40.8" y2="171.4"/>
					</g>
				</g>
				<g>
					<g>
						<line class="st9" x1="62.8" y1="25.5" x2="70" y2="18.4"/>
						<line class="st9" x1="62.8" y1="18.4" x2="70" y2="25.5"/>
					</g>
					<g>
						<line class="st9" x1="62.8" y1="54.7" x2="70" y2="47.6"/>
						<line class="st9" x1="62.8" y1="47.6" x2="70" y2="54.7"/>
					</g>
					<g>
						<line class="st9" x1="62.8" y1="83.9" x2="70" y2="76.8"/>
						<line class="st9" x1="62.8" y1="76.8" x2="70" y2="83.9"/>
					</g>
					<g>
						<line class="st9" x1="62.8" y1="113" x2="70" y2="105.9"/>
						<line class="st9" x1="62.8" y1="105.9" x2="70" y2="113"/>
					</g>
					<g>
						<line class="st9" x1="62.8" y1="142.2" x2="70" y2="135.1"/>
						<line class="st9" x1="62.8" y1="135.1" x2="70" y2="142.2"/>
					</g>
					<g>
						<line class="st9" x1="62.8" y1="171.4" x2="70" y2="164.3"/>
						<line class="st9" x1="62.8" y1="164.3" x2="70" y2="171.4"/>
					</g>
				</g>
				<g>
					<g>
						<line class="st9" x1="92" y1="25.5" x2="99.2" y2="18.4"/>
						<line class="st9" x1="92" y1="18.4" x2="99.2" y2="25.5"/>
					</g>
					<g>
						<line class="st9" x1="92" y1="54.7" x2="99.2" y2="47.6"/>
						<line class="st9" x1="92" y1="47.6" x2="99.2" y2="54.7"/>
					</g>
					<g>
						<line class="st9" x1="92" y1="83.9" x2="99.2" y2="76.8"/>
						<line class="st9" x1="92" y1="76.8" x2="99.2" y2="83.9"/>
					</g>
					<g>
						<line class="st9" x1="92" y1="113" x2="99.2" y2="105.9"/>
						<line class="st9" x1="92" y1="105.9" x2="99.2" y2="113"/>
					</g>
					<g>
						<line class="st9" x1="92" y1="142.2" x2="99.2" y2="135.1"/>
						<line class="st9" x1="92" y1="135.1" x2="99.2" y2="142.2"/>
					</g>
					<g>
						<line class="st9" x1="92" y1="171.4" x2="99.2" y2="164.3"/>
						<line class="st9" x1="92" y1="164.3" x2="99.2" y2="171.4"/>
					</g>
				</g>
				<g>
					<g>
						<line class="st9" x1="121.2" y1="25.5" x2="128.4" y2="18.4"/>
						<line class="st9" x1="121.2" y1="18.4" x2="128.4" y2="25.5"/>
					</g>
					<g>
						<line class="st9" x1="121.2" y1="54.7" x2="128.4" y2="47.6"/>
						<line class="st9" x1="121.2" y1="47.6" x2="128.4" y2="54.7"/>
					</g>
					<g>
						<line class="st9" x1="121.2" y1="83.9" x2="128.4" y2="76.8"/>
						<line class="st9" x1="121.2" y1="76.8" x2="128.4" y2="83.9"/>
					</g>
					<g>
						<line class="st9" x1="121.2" y1="113" x2="128.4" y2="105.9"/>
						<line class="st9" x1="121.2" y1="105.9" x2="128.4" y2="113"/>
					</g>
					<g>
						<line class="st9" x1="121.2" y1="142.2" x2="128.4" y2="135.1"/>
						<line class="st9" x1="121.2" y1="135.1" x2="128.4" y2="142.2"/>
					</g>
					<g>
						<line class="st9" x1="121.2" y1="171.4" x2="128.4" y2="164.3"/>
						<line class="st9" x1="121.2" y1="164.3" x2="128.4" y2="171.4"/>
					</g>
				</g>
				<g>
					<g>
						<line class="st9" x1="150.4" y1="25.5" x2="157.6" y2="18.4"/>
						<line class="st9" x1="150.4" y1="18.4" x2="157.6" y2="25.5"/>
					</g>
					<g>
						<line class="st9" x1="150.4" y1="54.7" x2="157.6" y2="47.6"/>
						<line class="st9" x1="150.4" y1="47.6" x2="157.6" y2="54.7"/>
					</g>
					<g>
						<line class="st9" x1="150.4" y1="83.9" x2="157.6" y2="76.8"/>
						<line class="st9" x1="150.4" y1="76.8" x2="157.6" y2="83.9"/>
					</g>
					<g>
						<line class="st9" x1="150.4" y1="113" x2="157.6" y2="105.9"/>
						<line class="st9" x1="150.4" y1="105.9" x2="157.6" y2="113"/>
					</g>
					<g>
						<line class="st9" x1="150.4" y1="142.2" x2="157.6" y2="135.1"/>
						<line class="st9" x1="150.4" y1="135.1" x2="157.6" y2="142.2"/>
					</g>
					<g>
						<line class="st9" x1="150.4" y1="171.4" x2="157.6" y2="164.3"/>
						<line class="st9" x1="150.4" y1="164.3" x2="157.6" y2="171.4"/>
					</g>
				</g>
			</g>
		</g>
		<g>
			<g>
				<g>
					<g>
						<line class="st9" x1="19.4" y1="11.4" x2="26.6" y2="4.3"/>
						<line class="st9" x1="19.4" y1="4.3" x2="26.6" y2="11.4"/>
					</g>
					<g>
						<line class="st9" x1="19.4" y1="40.5" x2="26.6" y2="33.4"/>
						<line class="st9" x1="19.4" y1="33.4" x2="26.6" y2="40.5"/>
					</g>
					<g>
						<line class="st9" x1="19.4" y1="69.7" x2="26.6" y2="62.6"/>
						<line class="st9" x1="19.4" y1="62.6" x2="26.6" y2="69.7"/>
					</g>
					<g>
						<line class="st9" x1="19.4" y1="98.9" x2="26.6" y2="91.8"/>
						<line class="st9" x1="19.4" y1="91.8" x2="26.6" y2="98.9"/>
					</g>
					<g>
						<line class="st9" x1="19.4" y1="128" x2="26.6" y2="120.9"/>
						<line class="st9" x1="19.4" y1="120.9" x2="26.6" y2="128"/>
					</g>
					<g>
						<line class="st9" x1="19.4" y1="157.2" x2="26.6" y2="150.1"/>
						<line class="st9" x1="19.4" y1="150.1" x2="26.6" y2="157.2"/>
					</g>
					<g>
						<line class="st9" x1="19.4" y1="186.4" x2="26.6" y2="179.3"/>
						<line class="st9" x1="19.4" y1="179.3" x2="26.6" y2="186.4"/>
					</g>
				</g>
				<g>
					<g>
						<line class="st9" x1="48.6" y1="11.4" x2="55.8" y2="4.3"/>
						<line class="st9" x1="48.6" y1="4.3" x2="55.8" y2="11.4"/>
					</g>
					<g>
						<line class="st9" x1="48.6" y1="40.5" x2="55.8" y2="33.4"/>
						<line class="st9" x1="48.6" y1="33.4" x2="55.8" y2="40.5"/>
					</g>
					<g>
						<line class="st9" x1="48.6" y1="69.7" x2="55.8" y2="62.6"/>
						<line class="st9" x1="48.6" y1="62.6" x2="55.8" y2="69.7"/>
					</g>
					<g>
						<line class="st9" x1="48.6" y1="98.9" x2="55.8" y2="91.8"/>
						<line class="st9" x1="48.6" y1="91.8" x2="55.8" y2="98.9"/>
					</g>
					<g>
						<line class="st9" x1="48.6" y1="128" x2="55.8" y2="120.9"/>
						<line class="st9" x1="48.6" y1="120.9" x2="55.8" y2="128"/>
					</g>
					<g>
						<line class="st9" x1="48.6" y1="157.2" x2="55.8" y2="150.1"/>
						<line class="st9" x1="48.6" y1="150.1" x2="55.8" y2="157.2"/>
					</g>
					<g>
						<line class="st9" x1="48.6" y1="186.4" x2="55.8" y2="179.3"/>
						<line class="st9" x1="48.6" y1="179.3" x2="55.8" y2="186.4"/>
					</g>
				</g>
				<g>
					<g>
						<line class="st9" x1="77.8" y1="11.4" x2="85" y2="4.3"/>
						<line class="st9" x1="77.8" y1="4.3" x2="85" y2="11.4"/>
					</g>
					<g>
						<line class="st9" x1="77.8" y1="40.5" x2="85" y2="33.4"/>
						<line class="st9" x1="77.8" y1="33.4" x2="85" y2="40.5"/>
					</g>
					<g>
						<line class="st9" x1="77.8" y1="69.7" x2="85" y2="62.6"/>
						<line class="st9" x1="77.8" y1="62.6" x2="85" y2="69.7"/>
					</g>
					<g>
						<line class="st9" x1="77.8" y1="98.9" x2="85" y2="91.8"/>
						<line class="st9" x1="77.8" y1="91.8" x2="85" y2="98.9"/>
					</g>
					<g>
						<line class="st9" x1="77.8" y1="128" x2="85" y2="120.9"/>
						<line class="st9" x1="77.8" y1="120.9" x2="85" y2="128"/>
					</g>
					<g>
						<line class="st9" x1="77.8" y1="157.2" x2="85" y2="150.1"/>
						<line class="st9" x1="77.8" y1="150.1" x2="85" y2="157.2"/>
					</g>
					<g>
						<line class="st9" x1="77.8" y1="186.4" x2="85" y2="179.3"/>
						<line class="st9" x1="77.8" y1="179.3" x2="85" y2="186.4"/>
					</g>
				</g>
				<g>
					<g>
						<line class="st9" x1="107" y1="11.4" x2="114.2" y2="4.3"/>
						<line class="st9" x1="107" y1="4.3" x2="114.2" y2="11.4"/>
					</g>
					<g>
						<line class="st9" x1="107" y1="40.5" x2="114.2" y2="33.4"/>
						<line class="st9" x1="107" y1="33.4" x2="114.2" y2="40.5"/>
					</g>
					<g>
						<line class="st9" x1="107" y1="69.7" x2="114.2" y2="62.6"/>
						<line class="st9" x1="107" y1="62.6" x2="114.2" y2="69.7"/>
					</g>
					<g>
						<line class="st9" x1="107" y1="98.9" x2="114.2" y2="91.8"/>
						<line class="st9" x1="107" y1="91.8" x2="114.2" y2="98.9"/>
					</g>
					<g>
						<line class="st9" x1="107" y1="128" x2="114.2" y2="120.9"/>
						<line class="st9" x1="107" y1="120.9" x2="114.2" y2="128"/>
					</g>
					<g>
						<line class="st9" x1="107" y1="157.2" x2="114.2" y2="150.1"/>
						<line class="st9" x1="107" y1="150.1" x2="114.2" y2="157.2"/>
					</g>
					<g>
						<line class="st9" x1="107" y1="186.4" x2="114.2" y2="179.3"/>
						<line class="st9" x1="107" y1="179.3" x2="114.2" y2="186.4"/>
					</g>
				</g>
				<g>
					<g>
						<line class="st9" x1="136.2" y1="11.4" x2="143.4" y2="4.3"/>
						<line class="st9" x1="136.2" y1="4.3" x2="143.4" y2="11.4"/>
					</g>
					<g>
						<line class="st9" x1="136.2" y1="40.5" x2="143.4" y2="33.4"/>
						<line class="st9" x1="136.2" y1="33.4" x2="143.4" y2="40.5"/>
					</g>
					<g>
						<line class="st9" x1="136.2" y1="69.7" x2="143.4" y2="62.6"/>
						<line class="st9" x1="136.2" y1="62.6" x2="143.4" y2="69.7"/>
					</g>
					<g>
						<line class="st9" x1="136.2" y1="98.9" x2="143.4" y2="91.8"/>
						<line class="st9" x1="136.2" y1="91.8" x2="143.4" y2="98.9"/>
					</g>
					<g>
						<line class="st9" x1="136.2" y1="128" x2="143.4" y2="120.9"/>
						<line class="st9" x1="136.2" y1="120.9" x2="143.4" y2="128"/>
					</g>
					<g>
						<line class="st9" x1="136.2" y1="157.2" x2="143.4" y2="150.1"/>
						<line class="st9" x1="136.2" y1="150.1" x2="143.4" y2="157.2"/>
					</g>
					<g>
						<line class="st9" x1="136.2" y1="186.4" x2="143.4" y2="179.3"/>
						<line class="st9" x1="136.2" y1="179.3" x2="143.4" y2="186.4"/>
					</g>
				</g>
				<g>
					<g>
						<line class="st9" x1="165.4" y1="11.4" x2="172.6" y2="4.3"/>
						<line class="st9" x1="165.4" y1="4.3" x2="172.6" y2="11.4"/>
					</g>
					<g>
						<line class="st9" x1="165.4" y1="40.5" x2="172.6" y2="33.4"/>
						<line class="st9" x1="165.4" y1="33.4" x2="172.6" y2="40.5"/>
					</g>
					<g>
						<line class="st9" x1="165.4" y1="69.7" x2="172.6" y2="62.6"/>
						<line class="st9" x1="165.4" y1="62.6" x2="172.6" y2="69.7"/>
					</g>
					<g>
						<line class="st9" x1="165.4" y1="98.9" x2="172.6" y2="91.8"/>
						<line class="st9" x1="165.4" y1="91.8" x2="172.6" y2="98.9"/>
					</g>
					<g>
						<line class="st9" x1="165.4" y1="128" x2="172.6" y2="120.9"/>
						<line class="st9" x1="165.4" y1="120.9" x2="172.6" y2="128"/>
					</g>
					<g>
						<line class="st9" x1="165.4" y1="157.2" x2="172.6" y2="150.1"/>
						<line class="st9" x1="165.4" y1="150.1" x2="172.6" y2="157.2"/>
					</g>
					<g>
						<line class="st9" x1="165.4" y1="186.4" x2="172.6" y2="179.3"/>
						<line class="st9" x1="165.4" y1="179.3" x2="172.6" y2="186.4"/>
					</g>
				</g>
			</g>
		</g>
	</g>
</g>
<g>
	<defs>
		<path id="SVGID_24_" d="M0,232v-57h175v57H0z M0,293v57h175v-57H0z"/>
	</defs>
	<clipPath id="SVGID_3_">
		<use xlink:href="#SVGID_24_"  style="overflow:visible;"/>
	</clipPath>
	<g style="clip-path:url(#SVGID_3_);">
		<g>
			<g>
				<g>
					<g>
						<line class="st9" x1="3" y1="168.5" x2="12" y2="168.5"/>
						<line class="st9" x1="7.5" y1="164" x2="7.5" y2="173"/>
					</g>
					<g>
						<line class="st9" x1="4" y1="197.5" x2="13" y2="197.5"/>
						<line class="st9" x1="8.5" y1="193" x2="8.5" y2="202"/>
					</g>
					<g>
						<line class="st9" x1="4" y1="227.5" x2="13" y2="227.5"/>
						<line class="st9" x1="8.5" y1="223" x2="8.5" y2="232"/>
					</g>
					<g>
						<line class="st9" x1="4" y1="256.5" x2="13" y2="256.5"/>
						<line class="st9" x1="8.5" y1="252" x2="8.5" y2="261"/>
					</g>
					<g>
						<line class="st9" x1="4" y1="284.5" x2="13" y2="284.5"/>
						<line class="st9" x1="8.5" y1="280" x2="8.5" y2="289"/>
					</g>
					<g>
						<line class="st9" x1="4" y1="314.5" x2="13" y2="314.5"/>
						<line class="st9" x1="8.5" y1="310" x2="8.5" y2="319"/>
					</g>
					<g>
						<line class="st9" x1="4" y1="343.5" x2="13" y2="343.5"/>
						<line class="st9" x1="8.5" y1="339" x2="8.5" y2="348"/>
					</g>
				</g>
				<g>
					<g>
						<line class="st9" x1="32" y1="168.5" x2="41" y2="168.5"/>
						<line class="st9" x1="37.5" y1="164" x2="37.5" y2="173"/>
					</g>
					<g>
						<line class="st9" x1="33" y1="197.5" x2="42" y2="197.5"/>
						<line class="st9" x1="37.5" y1="193" x2="37.5" y2="202"/>
					</g>
					<g>
						<line class="st9" x1="33" y1="227.5" x2="42" y2="227.5"/>
						<line class="st9" x1="37.5" y1="223" x2="37.5" y2="232"/>
					</g>
					<g>
						<line class="st9" x1="33" y1="256.5" x2="42" y2="256.5"/>
						<line class="st9" x1="37.5" y1="252" x2="37.5" y2="261"/>
					</g>
					<g>
						<line class="st9" x1="33" y1="284.5" x2="42" y2="284.5"/>
						<line class="st9" x1="37.5" y1="280" x2="37.5" y2="289"/>
					</g>
					<g>
						<line class="st9" x1="33" y1="314.5" x2="42" y2="314.5"/>
						<line class="st9" x1="37.5" y1="310" x2="37.5" y2="319"/>
					</g>
					<g>
						<line class="st9" x1="33" y1="343.5" x2="42" y2="343.5"/>
						<line class="st9" x1="37.5" y1="339" x2="37.5" y2="348"/>
					</g>
				</g>
				<g>
					<g>
						<line class="st9" x1="61" y1="168.5" x2="71" y2="168.5"/>
						<line class="st9" x1="66.5" y1="164" x2="66.5" y2="173"/>
					</g>
					<g>
						<line class="st9" x1="62" y1="197.5" x2="71" y2="197.5"/>
						<line class="st9" x1="66.5" y1="193" x2="66.5" y2="202"/>
					</g>
					<g>
						<line class="st9" x1="62" y1="227.5" x2="71" y2="227.5"/>
						<line class="st9" x1="66.5" y1="223" x2="66.5" y2="232"/>
					</g>
					<g>
						<line class="st9" x1="62" y1="256.5" x2="71" y2="256.5"/>
						<line class="st9" x1="66.5" y1="252" x2="66.5" y2="261"/>
					</g>
					<g>
						<line class="st9" x1="62" y1="284.5" x2="71" y2="284.5"/>
						<line class="st9" x1="66.5" y1="280" x2="66.5" y2="289"/>
					</g>
					<g>
						<line class="st9" x1="62" y1="314.5" x2="71" y2="314.5"/>
						<line class="st9" x1="66.5" y1="310" x2="66.5" y2="319"/>
					</g>
					<g>
						<line class="st9" x1="62" y1="343.5" x2="71" y2="343.5"/>
						<line class="st9" x1="66.5" y1="339" x2="66.5" y2="348"/>
					</g>
				</g>
				<g>
					<g>
						<line class="st9" x1="91" y1="168.5" x2="100" y2="168.5"/>
						<line class="st9" x1="95.5" y1="164" x2="95.5" y2="173"/>
					</g>
					<g>
						<line class="st9" x1="91" y1="197.5" x2="100" y2="197.5"/>
						<line class="st9" x1="95.5" y1="193" x2="95.5" y2="202"/>
					</g>
					<g>
						<line class="st9" x1="91" y1="227.5" x2="100" y2="227.5"/>
						<line class="st9" x1="95.5" y1="223" x2="95.5" y2="232"/>
					</g>
					<g>
						<line class="st9" x1="91" y1="256.5" x2="100" y2="256.5"/>
						<line class="st9" x1="95.5" y1="252" x2="95.5" y2="261"/>
					</g>
					<g>
						<line class="st9" x1="91" y1="284.5" x2="100" y2="284.5"/>
						<line class="st9" x1="95.5" y1="280" x2="95.5" y2="289"/>
					</g>
					<g>
						<line class="st9" x1="91" y1="314.5" x2="100" y2="314.5"/>
						<line class="st9" x1="95.5" y1="310" x2="95.5" y2="319"/>
					</g>
					<g>
						<line class="st9" x1="91" y1="343.5" x2="100" y2="343.5"/>
						<line class="st9" x1="95.5" y1="339" x2="95.5" y2="348"/>
					</g>
				</g>
				<g>
					<g>
						<line class="st9" x1="120" y1="168.5" x2="129" y2="168.5"/>
						<line class="st9" x1="124.5" y1="164" x2="124.5" y2="173"/>
					</g>
					<g>
						<line class="st9" x1="120" y1="197.5" x2="129" y2="197.5"/>
						<line class="st9" x1="124.5" y1="193" x2="124.5" y2="202"/>
					</g>
					<g>
						<line class="st9" x1="120" y1="227.5" x2="129" y2="227.5"/>
						<line class="st9" x1="124.5" y1="223" x2="124.5" y2="232"/>
					</g>
					<g>
						<line class="st9" x1="120" y1="256.5" x2="129" y2="256.5"/>
						<line class="st9" x1="124.5" y1="252" x2="124.5" y2="261"/>
					</g>
					<g>
						<line class="st9" x1="120" y1="284.5" x2="129" y2="284.5"/>
						<line class="st9" x1="124.5" y1="280" x2="124.5" y2="289"/>
					</g>
					<g>
						<line class="st9" x1="120" y1="314.5" x2="129" y2="314.5"/>
						<line class="st9" x1="124.5" y1="310" x2="124.5" y2="319"/>
					</g>
					<g>
						<line class="st9" x1="120" y1="343.5" x2="129" y2="343.5"/>
						<line class="st9" x1="124.5" y1="339" x2="124.5" y2="348"/>
					</g>
				</g>
				<g>
					<g>
						<line class="st9" x1="149" y1="168.5" x2="158" y2="168.5"/>
						<line class="st9" x1="153.5" y1="164" x2="153.5" y2="173"/>
					</g>
					<g>
						<line class="st9" x1="149" y1="197.5" x2="158" y2="197.5"/>
						<line class="st9" x1="153.5" y1="193" x2="153.5" y2="202"/>
					</g>
					<g>
						<line class="st9" x1="149" y1="227.5" x2="158" y2="227.5"/>
						<line class="st9" x1="153.5" y1="223" x2="153.5" y2="232"/>
					</g>
					<g>
						<line class="st9" x1="149" y1="256.5" x2="158" y2="256.5"/>
						<line class="st9" x1="153.5" y1="252" x2="153.5" y2="261"/>
					</g>
					<g>
						<line class="st9" x1="149" y1="284.5" x2="158" y2="284.5"/>
						<line class="st9" x1="153.5" y1="280" x2="153.5" y2="289"/>
					</g>
					<g>
						<line class="st9" x1="149" y1="314.5" x2="158" y2="314.5"/>
						<line class="st9" x1="153.5" y1="310" x2="153.5" y2="319"/>
					</g>
					<g>
						<line class="st9" x1="149" y1="343.5" x2="158" y2="343.5"/>
						<line class="st9" x1="153.5" y1="339" x2="153.5" y2="348"/>
					</g>
				</g>
			</g>
		</g>
		<g>
			<g>
				<g>
					<g>
						<line class="st9" x1="19" y1="183.5" x2="28" y2="183.5"/>
						<line class="st9" x1="23.5" y1="179" x2="23.5" y2="188"/>
					</g>
					<g>
						<line class="st9" x1="18" y1="212.5" x2="27" y2="212.5"/>
						<line class="st9" x1="22.5" y1="208" x2="22.5" y2="217"/>
					</g>
					<g>
						<line class="st9" x1="18" y1="242.5" x2="27" y2="242.5"/>
						<line class="st9" x1="22.5" y1="238" x2="22.5" y2="247"/>
					</g>
					<g>
						<line class="st9" x1="18" y1="271.5" x2="27" y2="271.5"/>
						<line class="st9" x1="22.5" y1="267" x2="22.5" y2="276"/>
					</g>
					<g>
						<line class="st9" x1="18" y1="300.5" x2="27" y2="300.5"/>
						<line class="st9" x1="22.5" y1="296" x2="22.5" y2="305"/>
					</g>
					<g>
						<line class="st9" x1="18" y1="329.5" x2="27" y2="329.5"/>
						<line class="st9" x1="22.5" y1="325" x2="22.5" y2="334"/>
					</g>
				</g>
				<g>
					<g>
						<line class="st9" x1="48" y1="183.5" x2="57" y2="183.5"/>
						<line class="st9" x1="52.5" y1="179" x2="52.5" y2="188"/>
					</g>
					<g>
						<line class="st9" x1="48" y1="212.5" x2="57" y2="212.5"/>
						<line class="st9" x1="52.5" y1="208" x2="52.5" y2="217"/>
					</g>
					<g>
						<line class="st9" x1="48" y1="242.5" x2="57" y2="242.5"/>
						<line class="st9" x1="52.5" y1="238" x2="52.5" y2="247"/>
					</g>
					<g>
						<line class="st9" x1="48" y1="271.5" x2="57" y2="271.5"/>
						<line class="st9" x1="52.5" y1="267" x2="52.5" y2="276"/>
					</g>
					<g>
						<line class="st9" x1="48" y1="300.5" x2="57" y2="300.5"/>
						<line class="st9" x1="52.5" y1="296" x2="52.5" y2="305"/>
					</g>
					<g>
						<line class="st9" x1="48" y1="329.5" x2="57" y2="329.5"/>
						<line class="st9" x1="52.5" y1="325" x2="52.5" y2="334"/>
					</g>
				</g>
				<g>
					<g>
						<line class="st9" x1="77" y1="183.5" x2="86" y2="183.5"/>
						<line class="st9" x1="81.5" y1="179" x2="81.5" y2="188"/>
					</g>
					<g>
						<line class="st9" x1="77" y1="212.5" x2="86" y2="212.5"/>
						<line class="st9" x1="81.5" y1="208" x2="81.5" y2="217"/>
					</g>
					<g>
						<line class="st9" x1="77" y1="242.5" x2="86" y2="242.5"/>
						<line class="st9" x1="81.5" y1="238" x2="81.5" y2="247"/>
					</g>
					<g>
						<line class="st9" x1="77" y1="271.5" x2="86" y2="271.5"/>
						<line class="st9" x1="81.5" y1="267" x2="81.5" y2="276"/>
					</g>
					<g>
						<line class="st9" x1="77" y1="300.5" x2="86" y2="300.5"/>
						<line class="st9" x1="81.5" y1="296" x2="81.5" y2="305"/>
					</g>
					<g>
						<line class="st9" x1="77" y1="329.5" x2="86" y2="329.5"/>
						<line class="st9" x1="81.5" y1="325" x2="81.5" y2="334"/>
					</g>
				</g>
				<g>
					<g>
						<line class="st9" x1="106" y1="183.5" x2="115" y2="183.5"/>
						<line class="st9" x1="110.5" y1="179" x2="110.5" y2="188"/>
					</g>
					<g>
						<line class="st9" x1="106" y1="212.5" x2="115" y2="212.5"/>
						<line class="st9" x1="110.5" y1="208" x2="110.5" y2="217"/>
					</g>
					<g>
						<line class="st9" x1="106" y1="242.5" x2="115" y2="242.5"/>
						<line class="st9" x1="110.5" y1="238" x2="110.5" y2="247"/>
					</g>
					<g>
						<line class="st9" x1="106" y1="271.5" x2="115" y2="271.5"/>
						<line class="st9" x1="110.5" y1="267" x2="110.5" y2="276"/>
					</g>
					<g>
						<line class="st9" x1="106" y1="300.5" x2="115" y2="300.5"/>
						<line class="st9" x1="110.5" y1="296" x2="110.5" y2="305"/>
					</g>
					<g>
						<line class="st9" x1="106" y1="329.5" x2="115" y2="329.5"/>
						<line class="st9" x1="110.5" y1="325" x2="110.5" y2="334"/>
					</g>
				</g>
				<g>
					<g>
						<line class="st9" x1="135" y1="183.5" x2="144" y2="183.5"/>
						<line class="st9" x1="139.5" y1="179" x2="139.5" y2="188"/>
					</g>
					<g>
						<line class="st9" x1="135" y1="212.5" x2="144" y2="212.5"/>
						<line class="st9" x1="139.5" y1="208" x2="139.5" y2="217"/>
					</g>
					<g>
						<line class="st9" x1="135" y1="242.5" x2="144" y2="242.5"/>
						<line class="st9" x1="139.5" y1="238" x2="139.5" y2="247"/>
					</g>
					<g>
						<line class="st9" x1="135" y1="271.5" x2="144" y2="271.5"/>
						<line class="st9" x1="139.5" y1="267" x2="139.5" y2="276"/>
					</g>
					<g>
						<line class="st9" x1="135" y1="300.5" x2="144" y2="300.5"/>
						<line class="st9" x1="139.5" y1="296" x2="139.5" y2="305"/>
					</g>
					<g>
						<line class="st9" x1="135" y1="329.5" x2="144" y2="329.5"/>
						<line class="st9" x1="139.5" y1="325" x2="139.5" y2="334"/>
					</g>
				</g>
				<g>
					<g>
						<line class="st9" x1="164" y1="183.5" x2="173" y2="183.5"/>
						<line class="st9" x1="168.5" y1="179" x2="168.5" y2="188"/>
					</g>
					<g>
						<line class="st9" x1="164" y1="212.5" x2="173" y2="212.5"/>
						<line class="st9" x1="168.5" y1="208" x2="168.5" y2="217"/>
					</g>
					<g>
						<line class="st9" x1="164" y1="242.5" x2="173" y2="242.5"/>
						<line class="st9" x1="168.5" y1="238" x2="168.5" y2="247"/>
					</g>
					<g>
						<line class="st9" x1="164" y1="271.5" x2="173" y2="271.5"/>
						<line class="st9" x1="168.5" y1="267" x2="168.5" y2="276"/>
					</g>
					<g>
						<line class="st9" x1="164" y1="300.5" x2="173" y2="300.5"/>
						<line class="st9" x1="168.5" y1="296" x2="168.5" y2="305"/>
					</g>
					<g>
						<line class="st9" x1="164" y1="329.5" x2="173" y2="329.5"/>
						<line class="st9" x1="168.5" y1="325" x2="168.5" y2="334"/>
					</g>
				</g>
			</g>
		</g>
	</g>
</g>
</svg>
