<?xml version="1.0" encoding="utf-8"?>
<!-- Generator: Adobe Illustrator 19.2.1, SVG Export Plug-In . SVG Version: 6.00 Build 0)  -->
<!DOCTYPE svg PUBLIC "-//W3C//DTD SVG 1.1//EN" "http://www.w3.org/Graphics/SVG/1.1/DTD/svg11.dtd">
<svg version="1.1" id="Layer_1" xmlns="http://www.w3.org/2000/svg" xmlns:xlink="http://www.w3.org/1999/xlink" x="0px" y="0px"
	 viewBox="0 0 175 348" style="enable-background:new 0 0 175 348;" xml:space="preserve">
<style type="text/css">
	.st0{fill:url(#SVGID_1_);}
	.st1{fill:#FFFFFF;}
	.st2{opacity:0.25;clip-path:url(#SVGID_3_);}
	.st3{fill:none;stroke:#000000;stroke-width:2;stroke-linecap:square;stroke-miterlimit:10;}
	.st4{fill:none;stroke:#1D1D1B;stroke-miterlimit:10;}
	.st5{clip-path:url(#SVGID_5_);}
	.st6{fill:none;stroke:#000000;stroke-linecap:square;stroke-miterlimit:10;}
	.st7{clip-path:url(#SVGID_7_);}
	.st8{clip-path:url(#SVGID_9_);}
	.st9{fill:none;stroke:#000000;stroke-miterlimit:10;}
	.st10{clip-path:url(#SVGID_11_);}
	.st11{clip-path:url(#SVGID_13_);}
	.st12{clip-path:url(#SVGID_13_);fill:none;stroke:#000000;stroke-linecap:square;stroke-miterlimit:10;}
	.st13{clip-path:url(#SVGID_15_);}
	.st14{clip-path:url(#SVGID_17_);}
	.st15{clip-path:url(#SVGID_19_);}
	.st16{clip-path:url(#SVGID_21_);}
	.st17{clip-path:url(#SVGID_23_);}
	.st18{clip-path:url(#SVGID_25_);}
	.st19{fill:#817FE2;}
	.st20{fill:none;stroke:#8989E0;stroke-width:4;stroke-linecap:round;stroke-miterlimit:10;stroke-dasharray:34,9,11,7,1,6;}
	.st21{fill:#6363B7;}
	.st22{fill:#5959AA;}
	.st23{fill:none;stroke:#8585E0;stroke-width:4;stroke-linecap:round;stroke-miterlimit:10;stroke-dasharray:12,8;}
	.st24{fill:none;stroke:#8585E0;stroke-width:4;stroke-linecap:round;stroke-miterlimit:10;stroke-dasharray:18,9,11,9,8;}
	.st25{fill:#D4145A;}
	.st26{fill:#EF4B96;}
	.st27{fill:#B17F4A;}
	.st28{fill:#936037;}
	.st29{fill:#2FAC66;}
	.st30{fill:#2B9958;}
	.st31{fill:#F4162C;}
	.st32{fill:#E30613;}
	.st33{fill:#C60517;}
	.st34{clip-path:url(#SVGID_27_);}
	.st35{clip-path:url(#SVGID_29_);}
	.st36{clip-path:url(#SVGID_31_);}
	.st37{clip-path:url(#SVGID_33_);}
	.st38{clip-path:url(#SVGID_35_);}
	.st39{clip-path:url(#SVGID_37_);}
	.st40{clip-path:url(#SVGID_39_);}
	.st41{clip-path:url(#SVGID_41_);}
	.st42{fill:#1D1D1B;}
</style>
<g>
	<defs>
		<path id="SVGID_10_" d="M0,56V0h175v56H0z M0,117v57h175v-57H0z"/>
	</defs>
	<clipPath id="SVGID_1_">
		<use xlink:href="#SVGID_10_"  style="overflow:visible;"/>
	</clipPath>
	<g style="clip-path:url(#SVGID_1_);">
		<line class="st6" x1="7.2" y1="-1.7" x2="-175.8" y2="181.4"/>
		<line class="st6" x1="18.1" y1="-1.7" x2="-165" y2="181.4"/>
		<line class="st6" x1="29" y1="-1.7" x2="-154.1" y2="181.4"/>
		<line class="st6" x1="39.8" y1="-1.7" x2="-143.2" y2="181.4"/>
		<line class="st6" x1="50.7" y1="-1.7" x2="-132.4" y2="181.4"/>
		<line class="st6" x1="61.6" y1="-1.7" x2="-121.5" y2="181.4"/>
		<line class="st6" x1="72.4" y1="-1.7" x2="-110.6" y2="181.4"/>
		<line class="st6" x1="83.3" y1="-1.7" x2="-99.8" y2="181.4"/>
		<line class="st6" x1="94.1" y1="-1.7" x2="-88.9" y2="181.4"/>
		<line class="st6" x1="105" y1="-1.7" x2="-78.1" y2="181.4"/>
		<line class="st6" x1="115.9" y1="-1.7" x2="-67.2" y2="181.4"/>
		<line class="st6" x1="126.7" y1="-1.7" x2="-56.3" y2="181.4"/>
		<line class="st6" x1="137.6" y1="-1.7" x2="-45.5" y2="181.4"/>
		<line class="st6" x1="148.5" y1="-1.7" x2="-34.6" y2="181.4"/>
		<line class="st6" x1="159.3" y1="-1.7" x2="-23.7" y2="181.4"/>
		<line class="st6" x1="170.2" y1="-1.7" x2="-12.9" y2="181.4"/>
		<line class="st6" x1="181.1" y1="-1.7" x2="-2" y2="181.4"/>
		<line class="st6" x1="191.9" y1="-1.7" x2="8.9" y2="181.4"/>
		<line class="st6" x1="202.8" y1="-1.7" x2="19.7" y2="181.4"/>
		<line class="st6" x1="213.7" y1="-1.7" x2="30.6" y2="181.4"/>
		<line class="st6" x1="224.5" y1="-1.7" x2="41.5" y2="181.4"/>
		<line class="st6" x1="235.4" y1="-1.7" x2="52.3" y2="181.4"/>
		<line class="st6" x1="246.3" y1="-1.7" x2="63.2" y2="181.4"/>
		<line class="st6" x1="257.1" y1="-1.7" x2="74.1" y2="181.4"/>
		<line class="st6" x1="268" y1="-1.7" x2="84.9" y2="181.4"/>
		<line class="st6" x1="278.9" y1="-1.7" x2="95.8" y2="181.4"/>
		<line class="st6" x1="289.7" y1="-1.7" x2="106.7" y2="181.4"/>
		<line class="st6" x1="300.6" y1="-1.7" x2="117.5" y2="181.4"/>
		<line class="st6" x1="311.4" y1="-1.7" x2="128.4" y2="181.4"/>
		<line class="st6" x1="322.3" y1="-1.7" x2="139.2" y2="181.4"/>
		<line class="st6" x1="333.2" y1="-1.7" x2="150.1" y2="181.4"/>
		<line class="st6" x1="344" y1="-1.7" x2="161" y2="181.4"/>
	</g>
</g>
<g>
	<defs>
		<path id="SVGID_12_" d="M0,230v-56h175v56H0z M0,291v57h175v-57H0z"/>
	</defs>
	<clipPath id="SVGID_3_">
		<use xlink:href="#SVGID_12_"  style="overflow:visible;"/>
	</clipPath>
	<g style="clip-path:url(#SVGID_3_);">
		<line class="st6" x1="4.2" y1="170.3" x2="-178.8" y2="353.4"/>
		<line class="st6" x1="15.1" y1="170.3" x2="-168" y2="353.4"/>
		<line class="st6" x1="26" y1="170.3" x2="-157.1" y2="353.4"/>
		<line class="st6" x1="36.8" y1="170.3" x2="-146.2" y2="353.4"/>
		<line class="st6" x1="47.7" y1="170.3" x2="-135.4" y2="353.4"/>
		<line class="st6" x1="58.6" y1="170.3" x2="-124.5" y2="353.4"/>
		<line class="st6" x1="69.4" y1="170.3" x2="-113.6" y2="353.4"/>
		<line class="st6" x1="80.3" y1="170.3" x2="-102.8" y2="353.4"/>
		<line class="st6" x1="91.1" y1="170.3" x2="-91.9" y2="353.4"/>
		<line class="st6" x1="102" y1="170.3" x2="-81.1" y2="353.4"/>
		<line class="st6" x1="112.9" y1="170.3" x2="-70.2" y2="353.4"/>
		<line class="st6" x1="123.7" y1="170.3" x2="-59.3" y2="353.4"/>
		<line class="st6" x1="134.6" y1="170.3" x2="-48.5" y2="353.4"/>
		<line class="st6" x1="145.5" y1="170.3" x2="-37.6" y2="353.4"/>
		<line class="st6" x1="156.3" y1="170.3" x2="-26.7" y2="353.4"/>
		<line class="st6" x1="167.2" y1="170.3" x2="-15.9" y2="353.4"/>
		<line class="st6" x1="178.1" y1="170.3" x2="-5" y2="353.4"/>
		<line class="st6" x1="188.9" y1="170.3" x2="5.9" y2="353.4"/>
		<line class="st6" x1="199.8" y1="170.3" x2="16.7" y2="353.4"/>
		<line class="st6" x1="210.7" y1="170.3" x2="27.6" y2="353.4"/>
		<line class="st6" x1="221.5" y1="170.3" x2="38.5" y2="353.4"/>
		<line class="st6" x1="232.4" y1="170.3" x2="49.3" y2="353.4"/>
		<line class="st6" x1="243.3" y1="170.3" x2="60.2" y2="353.4"/>
		<line class="st6" x1="254.1" y1="170.3" x2="71.1" y2="353.4"/>
		<line class="st6" x1="265" y1="170.3" x2="81.9" y2="353.4"/>
		<line class="st6" x1="275.9" y1="170.3" x2="92.8" y2="353.4"/>
		<line class="st6" x1="286.7" y1="170.3" x2="103.7" y2="353.4"/>
		<line class="st6" x1="297.6" y1="170.3" x2="114.5" y2="353.4"/>
		<line class="st6" x1="308.4" y1="170.3" x2="125.4" y2="353.4"/>
		<line class="st6" x1="319.3" y1="170.3" x2="136.2" y2="353.4"/>
		<line class="st6" x1="330.2" y1="170.3" x2="147.1" y2="353.4"/>
		<line class="st6" x1="341" y1="170.3" x2="158" y2="353.4"/>
	</g>
	
		<line style="clip-path:url(#SVGID_3_);fill:none;stroke:#000000;stroke-linecap:square;stroke-miterlimit:10;" x1="341" y1="181.3" x2="158" y2="364.4"/>
</g>
</svg>
