<?xml version="1.0" encoding="utf-8"?>
<!-- Generator: Adobe Illustrator 19.2.1, SVG Export Plug-In . SVG Version: 6.00 Build 0)  -->
<!DOCTYPE svg PUBLIC "-//W3C//DTD SVG 1.1//EN" "http://www.w3.org/Graphics/SVG/1.1/DTD/svg11.dtd">
<svg version="1.1" id="Layer_1" xmlns="http://www.w3.org/2000/svg" xmlns:xlink="http://www.w3.org/1999/xlink" x="0px" y="0px"
	 viewBox="0 0 175 174" style="enable-background:new 0 0 175 174;" xml:space="preserve">
<style type="text/css">
	.st0{fill:#FFFFFF;}
	.st1{fill:none;stroke:#1D1D1B;stroke-miterlimit:10;}
	.st2{clip-path:url(#SVGID_2_);}
	.st3{fill:none;stroke:#000000;stroke-linecap:square;stroke-miterlimit:10;}
	.st4{clip-path:url(#SVGID_4_);}
	.st5{clip-path:url(#SVGID_6_);}
	.st6{fill:none;stroke:#000000;stroke-miterlimit:10;}
	.st7{clip-path:url(#SVGID_8_);}
	.st8{clip-path:url(#SVGID_10_);}
	.st9{clip-path:url(#SVGID_12_);}
	.st10{fill:#817FE2;}
	.st11{fill:none;stroke:#8989E0;stroke-width:4;stroke-linecap:round;stroke-miterlimit:10;stroke-dasharray:34,9,11,7,1,6;}
	.st12{fill:#6363B7;}
	.st13{fill:#5959AA;}
	.st14{fill:none;stroke:#8585E0;stroke-width:4;stroke-linecap:round;stroke-miterlimit:10;stroke-dasharray:12,8;}
	.st15{fill:none;stroke:#8585E0;stroke-width:4;stroke-linecap:round;stroke-miterlimit:10;stroke-dasharray:18,9,11,9,8;}
	.st16{fill:#D4145A;}
	.st17{fill:#EF4B96;}
	.st18{fill:#B17F4A;}
	.st19{fill:#936037;}
	.st20{fill:#2FAC66;}
	.st21{fill:#2B9958;}
	.st22{fill:#F4162C;}
	.st23{fill:#E30613;}
	.st24{fill:#C60517;}
</style>
<g>
	<defs>
		<path id="SVGID_7_" d="M0,56V0h175v56H0z M0,117v57h175v-57H0z"/>
	</defs>
	<clipPath id="SVGID_2_">
		<use xlink:href="#SVGID_7_"  style="overflow:visible;"/>
	</clipPath>
	<g class="st2">
		<line class="st3" x1="7.2" y1="-1.7" x2="-175.8" y2="181.4"/>
		<line class="st3" x1="18.1" y1="-1.7" x2="-165" y2="181.4"/>
		<line class="st3" x1="29" y1="-1.7" x2="-154.1" y2="181.4"/>
		<line class="st3" x1="39.8" y1="-1.7" x2="-143.2" y2="181.4"/>
		<line class="st3" x1="50.7" y1="-1.7" x2="-132.4" y2="181.4"/>
		<line class="st3" x1="61.6" y1="-1.7" x2="-121.5" y2="181.4"/>
		<line class="st3" x1="72.4" y1="-1.7" x2="-110.6" y2="181.4"/>
		<line class="st3" x1="83.3" y1="-1.7" x2="-99.8" y2="181.4"/>
		<line class="st3" x1="94.1" y1="-1.7" x2="-88.9" y2="181.4"/>
		<line class="st3" x1="105" y1="-1.7" x2="-78.1" y2="181.4"/>
		<line class="st3" x1="115.9" y1="-1.7" x2="-67.2" y2="181.4"/>
		<line class="st3" x1="126.7" y1="-1.7" x2="-56.3" y2="181.4"/>
		<line class="st3" x1="137.6" y1="-1.7" x2="-45.5" y2="181.4"/>
		<line class="st3" x1="148.5" y1="-1.7" x2="-34.6" y2="181.4"/>
		<line class="st3" x1="159.3" y1="-1.7" x2="-23.7" y2="181.4"/>
		<line class="st3" x1="170.2" y1="-1.7" x2="-12.9" y2="181.4"/>
		<line class="st3" x1="181.1" y1="-1.7" x2="-2" y2="181.4"/>
		<line class="st3" x1="191.9" y1="-1.7" x2="8.9" y2="181.4"/>
		<line class="st3" x1="202.8" y1="-1.7" x2="19.7" y2="181.4"/>
		<line class="st3" x1="213.7" y1="-1.7" x2="30.6" y2="181.4"/>
		<line class="st3" x1="224.5" y1="-1.7" x2="41.5" y2="181.4"/>
		<line class="st3" x1="235.4" y1="-1.7" x2="52.3" y2="181.4"/>
		<line class="st3" x1="246.3" y1="-1.7" x2="63.2" y2="181.4"/>
		<line class="st3" x1="257.1" y1="-1.7" x2="74.1" y2="181.4"/>
		<line class="st3" x1="268" y1="-1.7" x2="84.9" y2="181.4"/>
		<line class="st3" x1="278.9" y1="-1.7" x2="95.8" y2="181.4"/>
		<line class="st3" x1="289.7" y1="-1.7" x2="106.7" y2="181.4"/>
		<line class="st3" x1="300.6" y1="-1.7" x2="117.5" y2="181.4"/>
		<line class="st3" x1="311.4" y1="-1.7" x2="128.4" y2="181.4"/>
		<line class="st3" x1="322.3" y1="-1.7" x2="139.2" y2="181.4"/>
		<line class="st3" x1="333.2" y1="-1.7" x2="150.1" y2="181.4"/>
		<line class="st3" x1="344" y1="-1.7" x2="161" y2="181.4"/>
	</g>
</g>
</svg>
