<?xml version="1.0" encoding="utf-8"?>
<!-- Generator: Adobe Illustrator 19.2.1, SVG Export Plug-In . SVG Version: 6.00 Build 0)  -->
<!DOCTYPE svg PUBLIC "-//W3C//DTD SVG 1.1//EN" "http://www.w3.org/Graphics/SVG/1.1/DTD/svg11.dtd">
<svg version="1.1" id="Layer_1" xmlns="http://www.w3.org/2000/svg" xmlns:xlink="http://www.w3.org/1999/xlink" x="0px" y="0px"
	 viewBox="0 0 174 174" style="enable-background:new 0 0 174 174;" xml:space="preserve">
<style type="text/css">
	.st0{fill:#FFFFFF;}
	.st1{fill:none;stroke:#1D1D1B;stroke-miterlimit:10;}
	.st2{clip-path:url(#SVGID_2_);}
	.st3{fill:none;stroke:#000000;stroke-linecap:square;stroke-miterlimit:10;}
	.st4{clip-path:url(#SVGID_4_);}
	.st5{clip-path:url(#SVGID_6_);}
	.st6{fill:none;stroke:#000000;stroke-miterlimit:10;}
	.st7{clip-path:url(#SVGID_8_);}
	.st8{clip-path:url(#SVGID_10_);}
	.st9{clip-path:url(#SVGID_12_);}
	.st10{fill:#817FE2;}
	.st11{fill:none;stroke:#8989E0;stroke-width:4;stroke-linecap:round;stroke-miterlimit:10;stroke-dasharray:34,9,11,7,1,6;}
	.st12{fill:#6363B7;}
	.st13{fill:#5959AA;}
	.st14{fill:none;stroke:#8585E0;stroke-width:4;stroke-linecap:round;stroke-miterlimit:10;stroke-dasharray:12,8;}
	.st15{fill:none;stroke:#8585E0;stroke-width:4;stroke-linecap:round;stroke-miterlimit:10;stroke-dasharray:18,9,11,9,8;}
	.st16{fill:#D4145A;}
	.st17{fill:#EF4B96;}
	.st18{fill:#B17F4A;}
	.st19{fill:#936037;}
	.st20{fill:#2FAC66;}
	.st21{fill:#2B9958;}
	.st22{fill:#F4162C;}
	.st23{fill:#E30613;}
	.st24{fill:#C60517;}
</style>
<g>
	<defs>
		<path id="SVGID_11_" d="M0,56V0h174v56H0z M0,117v57h174v-57H0z"/>
	</defs>
	<clipPath id="SVGID_2_">
		<use xlink:href="#SVGID_11_"  style="overflow:visible;"/>
	</clipPath>
	<g class="st2">
		<g>
			<polyline class="st1" points="4.2,-0.4 -9.8,43.2 4.2,86.8 -9.8,130.4 4.2,174 			"/>
		</g>
		<g>
			<polyline class="st1" points="12.3,-0.4 -1.7,43.2 12.3,86.8 -1.7,130.4 12.3,174 			"/>
		</g>
		<g>
			<polyline class="st1" points="20.5,-0.4 6.5,43.2 20.5,86.8 6.5,130.4 20.5,174 			"/>
		</g>
		<g>
			<polyline class="st1" points="28.6,-0.4 14.6,43.2 28.6,86.8 14.6,130.4 28.6,174 			"/>
		</g>
		<g>
			<polyline class="st1" points="36.8,-0.4 22.8,43.2 36.8,86.8 22.8,130.4 36.8,174 			"/>
		</g>
		<g>
			<polyline class="st1" points="44.9,-0.4 30.9,43.2 44.9,86.8 30.9,130.4 44.9,174 			"/>
		</g>
		<g>
			<polyline class="st1" points="53.1,-0.4 39.1,43.2 53.1,86.8 39.1,130.4 53.1,174 			"/>
		</g>
		<g>
			<polyline class="st1" points="61.2,-0.4 47.2,43.2 61.2,86.8 47.2,130.4 61.2,174 			"/>
		</g>
		<g>
			<polyline class="st1" points="69.4,-0.4 55.4,43.2 69.4,86.8 55.4,130.4 69.4,174 			"/>
		</g>
		<g>
			<polyline class="st1" points="77.6,-0.4 63.6,43.2 77.6,86.8 63.6,130.4 77.6,174 			"/>
		</g>
		<g>
			<polyline class="st1" points="85.7,-0.4 71.7,43.2 85.7,86.8 71.7,130.4 85.7,174 			"/>
		</g>
		<g>
			<polyline class="st1" points="93.9,-0.4 79.9,43.2 93.9,86.8 79.9,130.4 93.9,174 			"/>
		</g>
		<g>
			<polyline class="st1" points="102,-0.4 88,43.2 102,86.8 88,130.4 102,174 			"/>
		</g>
		<g>
			<polyline class="st1" points="110.2,-0.4 96.2,43.2 110.2,86.8 96.2,130.4 110.2,174 			"/>
		</g>
		<g>
			<polyline class="st1" points="118.3,-0.4 104.3,43.2 118.3,86.8 104.3,130.4 118.3,174 			"/>
		</g>
		<g>
			<polyline class="st1" points="126.5,-0.4 112.5,43.2 126.5,86.8 112.5,130.4 126.5,174 			"/>
		</g>
		<g>
			<polyline class="st1" points="134.6,-0.4 120.6,43.2 134.6,86.8 120.6,130.4 134.6,174 			"/>
		</g>
		<g>
			<polyline class="st1" points="142.8,-0.4 128.8,43.2 142.8,86.8 128.8,130.4 142.8,174 			"/>
		</g>
		<g>
			<polyline class="st1" points="150.9,-0.4 136.9,43.2 150.9,86.8 136.9,130.4 150.9,174 			"/>
		</g>
		<g>
			<polyline class="st1" points="159.1,-0.4 145.1,43.2 159.1,86.8 145.1,130.4 159.1,174 			"/>
		</g>
		<g>
			<polyline class="st1" points="167.3,-0.4 153.3,43.2 167.3,86.8 153.3,130.4 167.3,174 			"/>
		</g>
		<g>
			<polyline class="st1" points="175.4,-0.4 161.4,43.2 175.4,86.8 161.4,130.4 175.4,174 			"/>
		</g>
		<g>
			<polyline class="st1" points="183.6,-0.4 169.6,43.2 183.6,86.8 169.6,130.4 183.6,174 			"/>
		</g>
	</g>
</g>
</svg>
