<?xml version="1.0" encoding="utf-8"?>
<!-- Generator: Adobe Illustrator 19.2.1, SVG Export Plug-In . SVG Version: 6.00 Build 0)  -->
<!DOCTYPE svg PUBLIC "-//W3C//DTD SVG 1.1//EN" "http://www.w3.org/Graphics/SVG/1.1/DTD/svg11.dtd">
<svg version="1.1" id="Layer_1" xmlns="http://www.w3.org/2000/svg" xmlns:xlink="http://www.w3.org/1999/xlink" x="0px" y="0px"
	 viewBox="0 0 174.4 174.4" style="enable-background:new 0 0 174.4 174.4;" xml:space="preserve">
<style type="text/css">
	.st0{fill:#FFFFFF;}
	.st1{fill:none;stroke:#1D1D1B;stroke-miterlimit:10;}
	.st2{clip-path:url(#SVGID_2_);}
	.st3{fill:none;stroke:#000000;stroke-linecap:square;stroke-miterlimit:10;}
	.st4{clip-path:url(#SVGID_4_);}
	.st5{clip-path:url(#SVGID_6_);}
	.st6{fill:none;stroke:#000000;stroke-miterlimit:10;}
	.st7{clip-path:url(#SVGID_8_);}
	.st8{clip-path:url(#SVGID_10_);}
	.st9{clip-path:url(#SVGID_12_);}
	.st10{fill:#817FE2;}
	.st11{fill:none;stroke:#8989E0;stroke-width:4;stroke-linecap:round;stroke-miterlimit:10;stroke-dasharray:34,9,11,7,1,6;}
	.st12{fill:#6363B7;}
	.st13{fill:#5959AA;}
	.st14{fill:none;stroke:#8585E0;stroke-width:4;stroke-linecap:round;stroke-miterlimit:10;stroke-dasharray:12,8;}
	.st15{fill:none;stroke:#8585E0;stroke-width:4;stroke-linecap:round;stroke-miterlimit:10;stroke-dasharray:18,9,11,9,8;}
	.st16{fill:#D4145A;}
	.st17{fill:#EF4B96;}
	.st18{fill:#B17F4A;}
	.st19{fill:#936037;}
	.st20{fill:#2FAC66;}
	.st21{fill:#2B9958;}
	.st22{fill:#F4162C;}
	.st23{fill:#E30613;}
	.st24{fill:#C60517;}
</style>
<g>
	<defs>
		<rect id="SVGID_3_" width="174.4" height="174.4"/>
	</defs>
	<clipPath id="SVGID_2_">
		<use xlink:href="#SVGID_3_"  style="overflow:visible;"/>
	</clipPath>
	<g class="st2">
		<g>
			<polyline class="st1" points="4.5,0 -9.5,43.6 4.5,87.2 -9.5,130.8 4.5,174.4 			"/>
		</g>
		<g>
			<polyline class="st1" points="12.7,0 -1.3,43.6 12.7,87.2 -1.3,130.8 12.7,174.4 			"/>
		</g>
		<g>
			<polyline class="st1" points="20.8,0 6.8,43.6 20.8,87.2 6.8,130.8 20.8,174.4 			"/>
		</g>
		<g>
			<polyline class="st1" points="29,0 15,43.6 29,87.2 15,130.8 29,174.4 			"/>
		</g>
		<g>
			<polyline class="st1" points="37.1,0 23.1,43.6 37.1,87.2 23.1,130.8 37.1,174.4 			"/>
		</g>
		<g>
			<polyline class="st1" points="45.3,0 31.3,43.6 45.3,87.2 31.3,130.8 45.3,174.4 			"/>
		</g>
		<g>
			<polyline class="st1" points="53.4,0 39.4,43.6 53.4,87.2 39.4,130.8 53.4,174.4 			"/>
		</g>
		<g>
			<polyline class="st1" points="61.6,0 47.6,43.6 61.6,87.2 47.6,130.8 61.6,174.4 			"/>
		</g>
		<g>
			<polyline class="st1" points="69.7,0 55.7,43.6 69.7,87.2 55.7,130.8 69.7,174.4 			"/>
		</g>
		<g>
			<polyline class="st1" points="77.9,0 63.9,43.6 77.9,87.2 63.9,130.8 77.9,174.4 			"/>
		</g>
		<g>
			<polyline class="st1" points="86,0 72,43.6 86,87.2 72,130.8 86,174.4 			"/>
		</g>
		<g>
			<polyline class="st1" points="94.2,0 80.2,43.6 94.2,87.2 80.2,130.8 94.2,174.4 			"/>
		</g>
		<g>
			<polyline class="st1" points="102.4,0 88.4,43.6 102.4,87.2 88.4,130.8 102.4,174.4 			"/>
		</g>
		<g>
			<polyline class="st1" points="110.5,0 96.5,43.6 110.5,87.2 96.5,130.8 110.5,174.4 			"/>
		</g>
		<g>
			<polyline class="st1" points="118.7,0 104.7,43.6 118.7,87.2 104.7,130.8 118.7,174.4 			"/>
		</g>
		<g>
			<polyline class="st1" points="126.8,0 112.8,43.6 126.8,87.2 112.8,130.8 126.8,174.4 			"/>
		</g>
		<g>
			<polyline class="st1" points="135,0 121,43.6 135,87.2 121,130.8 135,174.4 			"/>
		</g>
		<g>
			<polyline class="st1" points="143.1,0 129.1,43.6 143.1,87.2 129.1,130.8 143.1,174.4 			"/>
		</g>
		<g>
			<polyline class="st1" points="151.3,0 137.3,43.6 151.3,87.2 137.3,130.8 151.3,174.4 			"/>
		</g>
		<g>
			<polyline class="st1" points="159.4,0 145.4,43.6 159.4,87.2 145.4,130.8 159.4,174.4 			"/>
		</g>
		<g>
			<polyline class="st1" points="167.6,0 153.6,43.6 167.6,87.2 153.6,130.8 167.6,174.4 			"/>
		</g>
		<g>
			<polyline class="st1" points="175.7,0 161.7,43.6 175.7,87.2 161.7,130.8 175.7,174.4 			"/>
		</g>
		<g>
			<polyline class="st1" points="183.9,0 169.9,43.6 183.9,87.2 169.9,130.8 183.9,174.4 			"/>
		</g>
	</g>
</g>
</svg>
