<?xml version="1.0" encoding="utf-8"?>
<!-- Generator: Adobe Illustrator 19.2.1, SVG Export Plug-In . SVG Version: 6.00 Build 0)  -->
<!DOCTYPE svg PUBLIC "-//W3C//DTD SVG 1.1//EN" "http://www.w3.org/Graphics/SVG/1.1/DTD/svg11.dtd">
<svg version="1.1" id="Layer_1" xmlns="http://www.w3.org/2000/svg" xmlns:xlink="http://www.w3.org/1999/xlink" x="0px" y="0px"
	 viewBox="0 0 174.4 174.4" style="enable-background:new 0 0 174.4 174.4;" xml:space="preserve">
<style type="text/css">
	.st0{fill:#FFFFFF;}
	.st1{fill:none;stroke:#1D1D1B;stroke-miterlimit:10;}
	.st2{clip-path:url(#SVGID_2_);}
	.st3{fill:none;stroke:#000000;stroke-linecap:square;stroke-miterlimit:10;}
	.st4{clip-path:url(#SVGID_4_);}
	.st5{clip-path:url(#SVGID_6_);}
	.st6{fill:none;stroke:#000000;stroke-miterlimit:10;}
	.st7{clip-path:url(#SVGID_8_);}
	.st8{clip-path:url(#SVGID_10_);}
	.st9{clip-path:url(#SVGID_12_);}
	.st10{fill:#817FE2;}
	.st11{fill:none;stroke:#8989E0;stroke-width:4;stroke-linecap:round;stroke-miterlimit:10;stroke-dasharray:34,9,11,7,1,6;}
	.st12{fill:#6363B7;}
	.st13{fill:#5959AA;}
	.st14{fill:none;stroke:#8585E0;stroke-width:4;stroke-linecap:round;stroke-miterlimit:10;stroke-dasharray:12,8;}
	.st15{fill:none;stroke:#8585E0;stroke-width:4;stroke-linecap:round;stroke-miterlimit:10;stroke-dasharray:18,9,11,9,8;}
	.st16{fill:#D4145A;}
	.st17{fill:#EF4B96;}
	.st18{fill:#B17F4A;}
	.st19{fill:#936037;}
	.st20{fill:#2FAC66;}
	.st21{fill:#2B9958;}
	.st22{fill:#F4162C;}
	.st23{fill:#E30613;}
	.st24{fill:#C60517;}
</style>
<g>
	<defs>
		<path id="SVGID_1_" d="M0,174.4V0h174.4v174.4H0z"/>
	</defs>
	<clipPath id="SVGID_2_">
		<use xlink:href="#SVGID_1_"  style="overflow:visible;"/>
	</clipPath>
	<g class="st2">
		<line class="st3" x1="7" y1="-1.3" x2="-176" y2="181.8"/>
		<line class="st3" x1="17.9" y1="-1.3" x2="-165.2" y2="181.8"/>
		<line class="st3" x1="28.8" y1="-1.3" x2="-154.3" y2="181.8"/>
		<line class="st3" x1="39.6" y1="-1.3" x2="-143.4" y2="181.8"/>
		<line class="st3" x1="50.5" y1="-1.3" x2="-132.6" y2="181.8"/>
		<line class="st3" x1="61.4" y1="-1.3" x2="-121.7" y2="181.8"/>
		<line class="st3" x1="72.2" y1="-1.3" x2="-110.8" y2="181.8"/>
		<line class="st3" x1="83.1" y1="-1.3" x2="-100" y2="181.8"/>
		<line class="st3" x1="93.9" y1="-1.3" x2="-89.1" y2="181.8"/>
		<line class="st3" x1="104.8" y1="-1.3" x2="-78.3" y2="181.8"/>
		<line class="st3" x1="115.7" y1="-1.3" x2="-67.4" y2="181.8"/>
		<line class="st3" x1="126.5" y1="-1.3" x2="-56.5" y2="181.8"/>
		<line class="st3" x1="137.4" y1="-1.3" x2="-45.7" y2="181.8"/>
		<line class="st3" x1="148.3" y1="-1.3" x2="-34.8" y2="181.8"/>
		<line class="st3" x1="159.1" y1="-1.3" x2="-23.9" y2="181.8"/>
		<line class="st3" x1="170" y1="-1.3" x2="-13.1" y2="181.8"/>
		<line class="st3" x1="180.9" y1="-1.3" x2="-2.2" y2="181.8"/>
		<line class="st3" x1="191.7" y1="-1.3" x2="8.7" y2="181.8"/>
		<line class="st3" x1="202.6" y1="-1.3" x2="19.5" y2="181.8"/>
		<line class="st3" x1="213.5" y1="-1.3" x2="30.4" y2="181.8"/>
		<line class="st3" x1="224.3" y1="-1.3" x2="41.3" y2="181.8"/>
		<line class="st3" x1="235.2" y1="-1.3" x2="52.1" y2="181.8"/>
		<line class="st3" x1="246.1" y1="-1.3" x2="63" y2="181.8"/>
		<line class="st3" x1="256.9" y1="-1.3" x2="73.9" y2="181.8"/>
		<line class="st3" x1="267.8" y1="-1.3" x2="84.7" y2="181.8"/>
		<line class="st3" x1="278.6" y1="-1.3" x2="95.6" y2="181.8"/>
		<line class="st3" x1="289.5" y1="-1.3" x2="106.4" y2="181.8"/>
		<line class="st3" x1="300.4" y1="-1.3" x2="117.3" y2="181.8"/>
		<line class="st3" x1="311.2" y1="-1.3" x2="128.2" y2="181.8"/>
		<line class="st3" x1="322.1" y1="-1.3" x2="139" y2="181.8"/>
		<line class="st3" x1="333" y1="-1.3" x2="149.9" y2="181.8"/>
		<line class="st3" x1="343.8" y1="-1.3" x2="160.8" y2="181.8"/>
	</g>
</g>
</svg>
