<?xml version="1.0" encoding="utf-8"?>
<!-- Generator: Adobe Illustrator 19.2.1, SVG Export Plug-In . SVG Version: 6.00 Build 0)  -->
<!DOCTYPE svg PUBLIC "-//W3C//DTD SVG 1.1//EN" "http://www.w3.org/Graphics/SVG/1.1/DTD/svg11.dtd">
<svg version="1.1" id="Layer_1" xmlns="http://www.w3.org/2000/svg" xmlns:xlink="http://www.w3.org/1999/xlink" x="0px" y="0px"
	 viewBox="0 0 174.4 174.4" style="enable-background:new 0 0 174.4 174.4;" xml:space="preserve">
<style type="text/css">
	.st0{fill:url(#SVGID_1_);}
	.st1{fill:#FFFFFF;}
	.st2{opacity:0.25;clip-path:url(#SVGID_3_);}
	.st3{fill:none;stroke:#000000;stroke-width:2;stroke-linecap:square;stroke-miterlimit:10;}
	.st4{fill:none;stroke:#1D1D1B;stroke-miterlimit:10;}
	.st5{clip-path:url(#SVGID_5_);}
	.st6{fill:none;stroke:#000000;stroke-linecap:square;stroke-miterlimit:10;}
	.st7{clip-path:url(#SVGID_7_);}
	.st8{clip-path:url(#SVGID_9_);}
	.st9{fill:none;stroke:#000000;stroke-miterlimit:10;}
	.st10{clip-path:url(#SVGID_11_);}
	.st11{clip-path:url(#SVGID_13_);}
	.st12{clip-path:url(#SVGID_13_);fill:none;stroke:#000000;stroke-linecap:square;stroke-miterlimit:10;}
	.st13{clip-path:url(#SVGID_15_);}
	.st14{clip-path:url(#SVGID_17_);}
	.st15{clip-path:url(#SVGID_19_);}
	.st16{clip-path:url(#SVGID_21_);}
	.st17{clip-path:url(#SVGID_23_);}
	.st18{clip-path:url(#SVGID_25_);}
	.st19{fill:#817FE2;}
	.st20{fill:none;stroke:#8989E0;stroke-width:4;stroke-linecap:round;stroke-miterlimit:10;stroke-dasharray:34,9,11,7,1,6;}
	.st21{fill:#6363B7;}
	.st22{fill:#5959AA;}
	.st23{fill:none;stroke:#8585E0;stroke-width:4;stroke-linecap:round;stroke-miterlimit:10;stroke-dasharray:12,8;}
	.st24{fill:none;stroke:#8585E0;stroke-width:4;stroke-linecap:round;stroke-miterlimit:10;stroke-dasharray:18,9,11,9,8;}
	.st25{fill:#D4145A;}
	.st26{fill:#EF4B96;}
	.st27{fill:#B17F4A;}
	.st28{fill:#936037;}
	.st29{fill:#2FAC66;}
	.st30{fill:#2B9958;}
	.st31{fill:#F4162C;}
	.st32{fill:#E30613;}
	.st33{fill:#C60517;}
	.st34{clip-path:url(#SVGID_27_);}
	.st35{clip-path:url(#SVGID_29_);}
	.st36{clip-path:url(#SVGID_31_);}
	.st37{clip-path:url(#SVGID_33_);}
	.st38{clip-path:url(#SVGID_35_);}
	.st39{clip-path:url(#SVGID_37_);}
	.st40{clip-path:url(#SVGID_39_);}
	.st41{clip-path:url(#SVGID_41_);}
	.st42{fill:#1D1D1B;}
</style>
<g>
	<defs>
		<path id="SVGID_2_" d="M636,462.4v-500h500v500H636z"/>
	</defs>
	<clipPath id="SVGID_1_">
		<use xlink:href="#SVGID_2_"  style="overflow:visible;"/>
	</clipPath>
	<g style="opacity:0.25;clip-path:url(#SVGID_1_);">
		<line class="st3" x1="655.8" y1="-41.3" x2="130.5" y2="484"/>
		<line class="st3" x1="677.7" y1="-41.3" x2="152.5" y2="484"/>
		<line class="st3" x1="699.7" y1="-41.3" x2="174.4" y2="484"/>
	</g>
</g>
<g>
	<defs>
		<rect id="SVGID_6_" y="0.4" width="175" height="174"/>
	</defs>
	<clipPath id="SVGID_3_">
		<use xlink:href="#SVGID_6_"  style="overflow:visible;"/>
	</clipPath>
	<g style="clip-path:url(#SVGID_3_);">
		<g>
			<polyline class="st4" points="4.6,0 -9.4,43.6 4.6,87.2 -9.4,130.8 4.6,174.4 			"/>
		</g>
		<g>
			<polyline class="st4" points="12.6,0 -1.4,43.6 12.6,87.2 -1.4,130.8 12.6,174.4 			"/>
		</g>
		<g>
			<polyline class="st4" points="20.5,0 6.5,43.6 20.5,87.2 6.5,130.8 20.5,174.4 			"/>
		</g>
		<g>
			<polyline class="st4" points="28.4,0 14.4,43.6 28.4,87.2 14.4,130.8 28.4,174.4 			"/>
		</g>
		<g>
			<polyline class="st4" points="36.4,0 22.4,43.6 36.4,87.2 22.4,130.8 36.4,174.4 			"/>
		</g>
		<g>
			<polyline class="st4" points="44.3,0 30.3,43.6 44.3,87.2 30.3,130.8 44.3,174.4 			"/>
		</g>
		<g>
			<polyline class="st4" points="52.2,0 38.2,43.6 52.2,87.2 38.2,130.8 52.2,174.4 			"/>
		</g>
		<g>
			<polyline class="st4" points="60.1,0 46.1,43.6 60.1,87.2 46.1,130.8 60.1,174.4 			"/>
		</g>
		<g>
			<polyline class="st4" points="68.1,0 54.1,43.6 68.1,87.2 54.1,130.8 68.1,174.4 			"/>
		</g>
		<g>
			<polyline class="st4" points="76,0 62,43.6 76,87.2 62,130.8 76,174.4 			"/>
		</g>
		<g>
			<polyline class="st4" points="83.9,0 69.9,43.6 83.9,87.2 69.9,130.8 83.9,174.4 			"/>
		</g>
		<g>
			<polyline class="st4" points="91.9,0 77.9,43.6 91.9,87.2 77.9,130.8 91.9,174.4 			"/>
		</g>
		<g>
			<polyline class="st4" points="99.8,0 85.8,43.6 99.8,87.2 85.8,130.8 99.8,174.4 			"/>
		</g>
		<g>
			<polyline class="st4" points="107.7,0 93.7,43.6 107.7,87.2 93.7,130.8 107.7,174.4 			"/>
		</g>
		<g>
			<polyline class="st4" points="115.7,0 101.7,43.6 115.7,87.2 101.7,130.8 115.7,174.4 			"/>
		</g>
		<g>
			<polyline class="st4" points="123.6,0 109.6,43.6 123.6,87.2 109.6,130.8 123.6,174.4 			"/>
		</g>
		<g>
			<polyline class="st4" points="131.5,0 117.5,43.6 131.5,87.2 117.5,130.8 131.5,174.4 			"/>
		</g>
		<g>
			<polyline class="st4" points="139.5,0 125.5,43.6 139.5,87.2 125.5,130.8 139.5,174.4 			"/>
		</g>
		<g>
			<polyline class="st4" points="147.4,0 133.4,43.6 147.4,87.2 133.4,130.8 147.4,174.4 			"/>
		</g>
		<g>
			<polyline class="st4" points="155.3,0 141.3,43.6 155.3,87.2 141.3,130.8 155.3,174.4 			"/>
		</g>
		<g>
			<polyline class="st4" points="163.2,0 149.2,43.6 163.2,87.2 149.2,130.8 163.2,174.4 			"/>
		</g>
		<g>
			<polyline class="st4" points="171.2,0 157.2,43.6 171.2,87.2 157.2,130.8 171.2,174.4 			"/>
		</g>
		<g>
			<polyline class="st4" points="179.1,0 165.1,43.6 179.1,87.2 165.1,130.8 179.1,174.4 			"/>
		</g>
		<g>
			<polyline class="st4" points="187,0 173,43.6 187,87.2 173,130.8 187,174.4 			"/>
		</g>
	</g>
</g>
</svg>
