<?xml version="1.0" encoding="utf-8"?>
<!-- Generator: Adobe Illustrator 19.2.1, SVG Export Plug-In . SVG Version: 6.00 Build 0)  -->
<!DOCTYPE svg PUBLIC "-//W3C//DTD SVG 1.1//EN" "http://www.w3.org/Graphics/SVG/1.1/DTD/svg11.dtd">
<svg version="1.1" id="Layer_1" xmlns="http://www.w3.org/2000/svg" xmlns:xlink="http://www.w3.org/1999/xlink" x="0px" y="0px"
	 viewBox="0 0 175 175" style="enable-background:new 0 0 175 175;" xml:space="preserve">
<style type="text/css">
	.st0{fill:#FFFFFF;}
	.st1{fill:none;stroke:#1D1D1B;stroke-miterlimit:10;}
	.st2{clip-path:url(#SVGID_2_);}
	.st3{fill:none;stroke:#000000;stroke-linecap:square;stroke-miterlimit:10;}
	.st4{clip-path:url(#SVGID_4_);}
	.st5{clip-path:url(#SVGID_6_);}
	.st6{fill:none;stroke:#000000;stroke-miterlimit:10;}
	.st7{clip-path:url(#SVGID_8_);}
	.st8{clip-path:url(#SVGID_10_);}
	.st9{clip-path:url(#SVGID_12_);}
	.st10{fill:#817FE2;}
	.st11{fill:none;stroke:#8989E0;stroke-width:4;stroke-linecap:round;stroke-miterlimit:10;stroke-dasharray:34,9,11,7,1,6;}
	.st12{fill:#6363B7;}
	.st13{fill:#5959AA;}
	.st14{fill:none;stroke:#8585E0;stroke-width:4;stroke-linecap:round;stroke-miterlimit:10;stroke-dasharray:12,8;}
	.st15{fill:none;stroke:#8585E0;stroke-width:4;stroke-linecap:round;stroke-miterlimit:10;stroke-dasharray:18,9,11,9,8;}
	.st16{fill:#D4145A;}
	.st17{fill:#EF4B96;}
	.st18{fill:#B17F4A;}
	.st19{fill:#936037;}
	.st20{fill:#2FAC66;}
	.st21{fill:#2B9958;}
	.st22{fill:#F4162C;}
	.st23{fill:#E30613;}
	.st24{fill:#C60517;}
</style>
<g>
	<defs>
		<path id="SVGID_1_" d="M-213.3,174.7V0.3h174.4v174.4H-213.3z"/>
	</defs>
	<clipPath id="SVGID_2_">
		<use xlink:href="#SVGID_1_"  style="overflow:visible;"/>
	</clipPath>
	<g class="st2">
		<line class="st3" x1="0.2" y1="-1" x2="-182.9" y2="182.1"/>
		<line class="st3" x1="11" y1="-1" x2="-172" y2="182.1"/>
		<line class="st3" x1="21.9" y1="-1" x2="-161.2" y2="182.1"/>
		<line class="st3" x1="32.8" y1="-1" x2="-150.3" y2="182.1"/>
		<line class="st3" x1="43.6" y1="-1" x2="-139.4" y2="182.1"/>
		<line class="st3" x1="54.5" y1="-1" x2="-128.6" y2="182.1"/>
		<line class="st3" x1="65.4" y1="-1" x2="-117.7" y2="182.1"/>
		<line class="st3" x1="76.2" y1="-1" x2="-106.8" y2="182.1"/>
		<line class="st3" x1="87.1" y1="-1" x2="-96" y2="182.1"/>
		<line class="st3" x1="97.9" y1="-1" x2="-85.1" y2="182.1"/>
		<line class="st3" x1="108.8" y1="-1" x2="-74.3" y2="182.1"/>
		<line class="st3" x1="119.7" y1="-1" x2="-63.4" y2="182.1"/>
		<line class="st3" x1="130.5" y1="-1" x2="-52.5" y2="182.1"/>
	</g>
</g>
<g>
	<defs>
		<rect id="SVGID_5_" width="175" height="175"/>
	</defs>
	<clipPath id="SVGID_4_">
		<use xlink:href="#SVGID_5_"  style="overflow:visible;"/>
	</clipPath>
	<g class="st4">
		<g>
			<g>
				<g>
					<g>
						<line class="st6" x1="3.9" y1="25.2" x2="11.1" y2="18.1"/>
						<line class="st6" x1="3.9" y1="18.1" x2="11.1" y2="25.2"/>
					</g>
					<g>
						<line class="st6" x1="3.9" y1="54.4" x2="11.1" y2="47.3"/>
						<line class="st6" x1="3.9" y1="47.3" x2="11.1" y2="54.4"/>
					</g>
					<g>
						<line class="st6" x1="3.9" y1="83.6" x2="11.1" y2="76.4"/>
						<line class="st6" x1="3.9" y1="76.4" x2="11.1" y2="83.6"/>
					</g>
					<g>
						<line class="st6" x1="3.9" y1="112.7" x2="11.1" y2="105.6"/>
						<line class="st6" x1="3.9" y1="105.6" x2="11.1" y2="112.7"/>
					</g>
					<g>
						<line class="st6" x1="3.9" y1="141.9" x2="11.1" y2="134.8"/>
						<line class="st6" x1="3.9" y1="134.8" x2="11.1" y2="141.9"/>
					</g>
					<g>
						<line class="st6" x1="3.9" y1="171.1" x2="11.1" y2="163.9"/>
						<line class="st6" x1="3.9" y1="163.9" x2="11.1" y2="171.1"/>
					</g>
				</g>
				<g>
					<g>
						<line class="st6" x1="33.1" y1="25.2" x2="40.3" y2="18.1"/>
						<line class="st6" x1="33.1" y1="18.1" x2="40.3" y2="25.2"/>
					</g>
					<g>
						<line class="st6" x1="33.1" y1="54.4" x2="40.3" y2="47.3"/>
						<line class="st6" x1="33.1" y1="47.3" x2="40.3" y2="54.4"/>
					</g>
					<g>
						<line class="st6" x1="33.1" y1="83.6" x2="40.3" y2="76.4"/>
						<line class="st6" x1="33.1" y1="76.4" x2="40.3" y2="83.6"/>
					</g>
					<g>
						<line class="st6" x1="33.1" y1="112.7" x2="40.3" y2="105.6"/>
						<line class="st6" x1="33.1" y1="105.6" x2="40.3" y2="112.7"/>
					</g>
					<g>
						<line class="st6" x1="33.1" y1="141.9" x2="40.3" y2="134.8"/>
						<line class="st6" x1="33.1" y1="134.8" x2="40.3" y2="141.9"/>
					</g>
					<g>
						<line class="st6" x1="33.1" y1="171.1" x2="40.3" y2="163.9"/>
						<line class="st6" x1="33.1" y1="163.9" x2="40.3" y2="171.1"/>
					</g>
				</g>
				<g>
					<g>
						<line class="st6" x1="62.3" y1="25.2" x2="69.5" y2="18.1"/>
						<line class="st6" x1="62.3" y1="18.1" x2="69.5" y2="25.2"/>
					</g>
					<g>
						<line class="st6" x1="62.3" y1="54.4" x2="69.5" y2="47.3"/>
						<line class="st6" x1="62.3" y1="47.3" x2="69.5" y2="54.4"/>
					</g>
					<g>
						<line class="st6" x1="62.3" y1="83.6" x2="69.5" y2="76.4"/>
						<line class="st6" x1="62.3" y1="76.4" x2="69.5" y2="83.6"/>
					</g>
					<g>
						<line class="st6" x1="62.3" y1="112.7" x2="69.5" y2="105.6"/>
						<line class="st6" x1="62.3" y1="105.6" x2="69.5" y2="112.7"/>
					</g>
					<g>
						<line class="st6" x1="62.3" y1="141.9" x2="69.5" y2="134.8"/>
						<line class="st6" x1="62.3" y1="134.8" x2="69.5" y2="141.9"/>
					</g>
					<g>
						<line class="st6" x1="62.3" y1="171.1" x2="69.5" y2="163.9"/>
						<line class="st6" x1="62.3" y1="163.9" x2="69.5" y2="171.1"/>
					</g>
				</g>
				<g>
					<g>
						<line class="st6" x1="91.5" y1="25.2" x2="98.7" y2="18.1"/>
						<line class="st6" x1="91.5" y1="18.1" x2="98.7" y2="25.2"/>
					</g>
					<g>
						<line class="st6" x1="91.5" y1="54.4" x2="98.7" y2="47.3"/>
						<line class="st6" x1="91.5" y1="47.3" x2="98.7" y2="54.4"/>
					</g>
					<g>
						<line class="st6" x1="91.5" y1="83.6" x2="98.7" y2="76.4"/>
						<line class="st6" x1="91.5" y1="76.4" x2="98.7" y2="83.6"/>
					</g>
					<g>
						<line class="st6" x1="91.5" y1="112.7" x2="98.7" y2="105.6"/>
						<line class="st6" x1="91.5" y1="105.6" x2="98.7" y2="112.7"/>
					</g>
					<g>
						<line class="st6" x1="91.5" y1="141.9" x2="98.7" y2="134.8"/>
						<line class="st6" x1="91.5" y1="134.8" x2="98.7" y2="141.9"/>
					</g>
					<g>
						<line class="st6" x1="91.5" y1="171.1" x2="98.7" y2="163.9"/>
						<line class="st6" x1="91.5" y1="163.9" x2="98.7" y2="171.1"/>
					</g>
				</g>
				<g>
					<g>
						<line class="st6" x1="120.7" y1="25.2" x2="127.9" y2="18.1"/>
						<line class="st6" x1="120.7" y1="18.1" x2="127.9" y2="25.2"/>
					</g>
					<g>
						<line class="st6" x1="120.7" y1="54.4" x2="127.9" y2="47.3"/>
						<line class="st6" x1="120.7" y1="47.3" x2="127.9" y2="54.4"/>
					</g>
					<g>
						<line class="st6" x1="120.7" y1="83.6" x2="127.9" y2="76.4"/>
						<line class="st6" x1="120.7" y1="76.4" x2="127.9" y2="83.6"/>
					</g>
					<g>
						<line class="st6" x1="120.7" y1="112.7" x2="127.9" y2="105.6"/>
						<line class="st6" x1="120.7" y1="105.6" x2="127.9" y2="112.7"/>
					</g>
					<g>
						<line class="st6" x1="120.7" y1="141.9" x2="127.9" y2="134.8"/>
						<line class="st6" x1="120.7" y1="134.8" x2="127.9" y2="141.9"/>
					</g>
					<g>
						<line class="st6" x1="120.7" y1="171.1" x2="127.9" y2="163.9"/>
						<line class="st6" x1="120.7" y1="163.9" x2="127.9" y2="171.1"/>
					</g>
				</g>
				<g>
					<g>
						<line class="st6" x1="149.9" y1="25.2" x2="157.1" y2="18.1"/>
						<line class="st6" x1="149.9" y1="18.1" x2="157.1" y2="25.2"/>
					</g>
					<g>
						<line class="st6" x1="149.9" y1="54.4" x2="157.1" y2="47.3"/>
						<line class="st6" x1="149.9" y1="47.3" x2="157.1" y2="54.4"/>
					</g>
					<g>
						<line class="st6" x1="149.9" y1="83.6" x2="157.1" y2="76.4"/>
						<line class="st6" x1="149.9" y1="76.4" x2="157.1" y2="83.6"/>
					</g>
					<g>
						<line class="st6" x1="149.9" y1="112.7" x2="157.1" y2="105.6"/>
						<line class="st6" x1="149.9" y1="105.6" x2="157.1" y2="112.7"/>
					</g>
					<g>
						<line class="st6" x1="149.9" y1="141.9" x2="157.1" y2="134.8"/>
						<line class="st6" x1="149.9" y1="134.8" x2="157.1" y2="141.9"/>
					</g>
					<g>
						<line class="st6" x1="149.9" y1="171.1" x2="157.1" y2="163.9"/>
						<line class="st6" x1="149.9" y1="163.9" x2="157.1" y2="171.1"/>
					</g>
				</g>
			</g>
		</g>
		<g>
			<g>
				<g>
					<g>
						<line class="st6" x1="18.9" y1="11.1" x2="26.1" y2="3.9"/>
						<line class="st6" x1="18.9" y1="3.9" x2="26.1" y2="11.1"/>
					</g>
					<g>
						<line class="st6" x1="18.9" y1="40.2" x2="26.1" y2="33.1"/>
						<line class="st6" x1="18.9" y1="33.1" x2="26.1" y2="40.2"/>
					</g>
					<g>
						<line class="st6" x1="18.9" y1="69.4" x2="26.1" y2="62.3"/>
						<line class="st6" x1="18.9" y1="62.3" x2="26.1" y2="69.4"/>
					</g>
					<g>
						<line class="st6" x1="18.9" y1="98.6" x2="26.1" y2="91.4"/>
						<line class="st6" x1="18.9" y1="91.4" x2="26.1" y2="98.6"/>
					</g>
					<g>
						<line class="st6" x1="18.9" y1="127.7" x2="26.1" y2="120.6"/>
						<line class="st6" x1="18.9" y1="120.6" x2="26.1" y2="127.7"/>
					</g>
					<g>
						<line class="st6" x1="18.9" y1="156.9" x2="26.1" y2="149.8"/>
						<line class="st6" x1="18.9" y1="149.8" x2="26.1" y2="156.9"/>
					</g>
				</g>
				<g>
					<g>
						<line class="st6" x1="48.1" y1="11.1" x2="55.3" y2="3.9"/>
						<line class="st6" x1="48.1" y1="3.9" x2="55.3" y2="11.1"/>
					</g>
					<g>
						<line class="st6" x1="48.1" y1="40.2" x2="55.3" y2="33.1"/>
						<line class="st6" x1="48.1" y1="33.1" x2="55.3" y2="40.2"/>
					</g>
					<g>
						<line class="st6" x1="48.1" y1="69.4" x2="55.3" y2="62.3"/>
						<line class="st6" x1="48.1" y1="62.3" x2="55.3" y2="69.4"/>
					</g>
					<g>
						<line class="st6" x1="48.1" y1="98.6" x2="55.3" y2="91.4"/>
						<line class="st6" x1="48.1" y1="91.4" x2="55.3" y2="98.6"/>
					</g>
					<g>
						<line class="st6" x1="48.1" y1="127.7" x2="55.3" y2="120.6"/>
						<line class="st6" x1="48.1" y1="120.6" x2="55.3" y2="127.7"/>
					</g>
					<g>
						<line class="st6" x1="48.1" y1="156.9" x2="55.3" y2="149.8"/>
						<line class="st6" x1="48.1" y1="149.8" x2="55.3" y2="156.9"/>
					</g>
				</g>
				<g>
					<g>
						<line class="st6" x1="77.3" y1="11.1" x2="84.5" y2="3.9"/>
						<line class="st6" x1="77.3" y1="3.9" x2="84.5" y2="11.1"/>
					</g>
					<g>
						<line class="st6" x1="77.3" y1="40.2" x2="84.5" y2="33.1"/>
						<line class="st6" x1="77.3" y1="33.1" x2="84.5" y2="40.2"/>
					</g>
					<g>
						<line class="st6" x1="77.3" y1="69.4" x2="84.5" y2="62.3"/>
						<line class="st6" x1="77.3" y1="62.3" x2="84.5" y2="69.4"/>
					</g>
					<g>
						<line class="st6" x1="77.3" y1="98.6" x2="84.5" y2="91.4"/>
						<line class="st6" x1="77.3" y1="91.4" x2="84.5" y2="98.6"/>
					</g>
					<g>
						<line class="st6" x1="77.3" y1="127.7" x2="84.5" y2="120.6"/>
						<line class="st6" x1="77.3" y1="120.6" x2="84.5" y2="127.7"/>
					</g>
					<g>
						<line class="st6" x1="77.3" y1="156.9" x2="84.5" y2="149.8"/>
						<line class="st6" x1="77.3" y1="149.8" x2="84.5" y2="156.9"/>
					</g>
				</g>
				<g>
					<g>
						<line class="st6" x1="106.5" y1="11.1" x2="113.7" y2="3.9"/>
						<line class="st6" x1="106.5" y1="3.9" x2="113.7" y2="11.1"/>
					</g>
					<g>
						<line class="st6" x1="106.5" y1="40.2" x2="113.7" y2="33.1"/>
						<line class="st6" x1="106.5" y1="33.1" x2="113.7" y2="40.2"/>
					</g>
					<g>
						<line class="st6" x1="106.5" y1="69.4" x2="113.7" y2="62.3"/>
						<line class="st6" x1="106.5" y1="62.3" x2="113.7" y2="69.4"/>
					</g>
					<g>
						<line class="st6" x1="106.5" y1="98.6" x2="113.7" y2="91.4"/>
						<line class="st6" x1="106.5" y1="91.4" x2="113.7" y2="98.6"/>
					</g>
					<g>
						<line class="st6" x1="106.5" y1="127.7" x2="113.7" y2="120.6"/>
						<line class="st6" x1="106.5" y1="120.6" x2="113.7" y2="127.7"/>
					</g>
					<g>
						<line class="st6" x1="106.5" y1="156.9" x2="113.7" y2="149.8"/>
						<line class="st6" x1="106.5" y1="149.8" x2="113.7" y2="156.9"/>
					</g>
				</g>
				<g>
					<g>
						<line class="st6" x1="135.7" y1="11.1" x2="142.9" y2="3.9"/>
						<line class="st6" x1="135.7" y1="3.9" x2="142.9" y2="11.1"/>
					</g>
					<g>
						<line class="st6" x1="135.7" y1="40.2" x2="142.9" y2="33.1"/>
						<line class="st6" x1="135.7" y1="33.1" x2="142.9" y2="40.2"/>
					</g>
					<g>
						<line class="st6" x1="135.7" y1="69.4" x2="142.9" y2="62.3"/>
						<line class="st6" x1="135.7" y1="62.3" x2="142.9" y2="69.4"/>
					</g>
					<g>
						<line class="st6" x1="135.7" y1="98.6" x2="142.9" y2="91.4"/>
						<line class="st6" x1="135.7" y1="91.4" x2="142.9" y2="98.6"/>
					</g>
					<g>
						<line class="st6" x1="135.7" y1="127.7" x2="142.9" y2="120.6"/>
						<line class="st6" x1="135.7" y1="120.6" x2="142.9" y2="127.7"/>
					</g>
					<g>
						<line class="st6" x1="135.7" y1="156.9" x2="142.9" y2="149.8"/>
						<line class="st6" x1="135.7" y1="149.8" x2="142.9" y2="156.9"/>
					</g>
				</g>
				<g>
					<g>
						<line class="st6" x1="164.9" y1="11.1" x2="172.1" y2="3.9"/>
						<line class="st6" x1="164.9" y1="3.9" x2="172.1" y2="11.1"/>
					</g>
					<g>
						<line class="st6" x1="164.9" y1="40.2" x2="172.1" y2="33.1"/>
						<line class="st6" x1="164.9" y1="33.1" x2="172.1" y2="40.2"/>
					</g>
					<g>
						<line class="st6" x1="164.9" y1="69.4" x2="172.1" y2="62.3"/>
						<line class="st6" x1="164.9" y1="62.3" x2="172.1" y2="69.4"/>
					</g>
					<g>
						<line class="st6" x1="164.9" y1="98.6" x2="172.1" y2="91.4"/>
						<line class="st6" x1="164.9" y1="91.4" x2="172.1" y2="98.6"/>
					</g>
					<g>
						<line class="st6" x1="164.9" y1="127.7" x2="172.1" y2="120.6"/>
						<line class="st6" x1="164.9" y1="120.6" x2="172.1" y2="127.7"/>
					</g>
					<g>
						<line class="st6" x1="164.9" y1="156.9" x2="172.1" y2="149.8"/>
						<line class="st6" x1="164.9" y1="149.8" x2="172.1" y2="156.9"/>
					</g>
				</g>
			</g>
		</g>
	</g>
</g>
</svg>
