<?xml version="1.0" encoding="utf-8"?>
<!-- Generator: Adobe Illustrator 19.2.1, SVG Export Plug-In . SVG Version: 6.00 Build 0)  -->
<!DOCTYPE svg PUBLIC "-//W3C//DTD SVG 1.1//EN" "http://www.w3.org/Graphics/SVG/1.1/DTD/svg11.dtd">
<svg version="1.1" id="Layer_1" xmlns="http://www.w3.org/2000/svg" xmlns:xlink="http://www.w3.org/1999/xlink" x="0px" y="0px"
	 viewBox="0 0 160.2 178.6" style="enable-background:new 0 0 160.2 178.6;" xml:space="preserve">
<style type="text/css">
	.st0{fill:#FFFFFF;}
	.st1{fill:none;stroke:#1D1D1B;stroke-miterlimit:10;}
	.st2{clip-path:url(#SVGID_2_);}
	.st3{fill:none;stroke:#000000;stroke-linecap:square;stroke-miterlimit:10;}
	.st4{clip-path:url(#SVGID_4_);}
	.st5{clip-path:url(#SVGID_6_);}
	.st6{fill:none;stroke:#000000;stroke-miterlimit:10;}
	.st7{clip-path:url(#SVGID_8_);}
	.st8{clip-path:url(#SVGID_10_);}
	.st9{clip-path:url(#SVGID_12_);}
	.st10{fill:#817FE2;}
	.st11{fill:none;stroke:#8989E0;stroke-width:4;stroke-linecap:round;stroke-miterlimit:10;stroke-dasharray:34,9,11,7,1,6;}
	.st12{fill:#6363B7;}
	.st13{fill:#5959AA;}
	.st14{fill:none;stroke:#8585E0;stroke-width:4;stroke-linecap:round;stroke-miterlimit:10;stroke-dasharray:12,8;}
	.st15{fill:none;stroke:#8585E0;stroke-width:4;stroke-linecap:round;stroke-miterlimit:10;stroke-dasharray:18,9,11,9,8;}
	.st16{fill:#D4145A;}
	.st17{fill:#EF4B96;}
	.st18{fill:#B17F4A;}
	.st19{fill:#936037;}
	.st20{fill:#2FAC66;}
	.st21{fill:#2B9958;}
	.st22{fill:#F4162C;}
	.st23{fill:#E30613;}
	.st24{fill:#C60517;}
</style>
<g>
	<path class="st20" d="M108.6,10.2C80.9,25.9,38.4,0,38.4,0s25.9,42.5,10.2,70.1c31.9-7.9,48.7,28.5,48.9,37c20.5-16.1,42-6,42-6
		s-10.1-21.5,6-42C137.1,58.9,100.7,42.1,108.6,10.2z"/>
	<path class="st21" d="M38.4,0c0,0,25.9,42.5,10.2,70.1c31.9-7.9,48.7,28.5,48.9,37c20.5-16.1,42-6,42-6L38.4,0z"/>
	<path class="st20" d="M40.7,98.1c1.5,31.8-40.7,58-40.7,58s49.6-4,67.2,22.5c7.3-32.1,47.4-30.7,55.1-27
		c-5.1-25.6,13.6-40.2,13.6-40.2s-23.8-0.6-34.8-24.3C97,94.6,65.6,119.5,40.7,98.1z"/>
	<path class="st21" d="M0,156.1c0,0,49.6-4,67.2,22.5c7.3-32.1,47.4-30.7,55.1-27c-5.1-25.6,13.6-40.2,13.6-40.2L0,156.1z"/>
	<circle class="st22" cx="139.6" cy="96.4" r="10.8"/>
	<circle class="st23" cx="131.4" cy="114.8" r="10.8"/>
	<circle class="st24" cx="149.4" cy="111.9" r="10.8"/>
	<path class="st22" d="M149.4,119.8c-4.4,0-7.9-3.6-7.9-7.9c0-0.8,0.1-1.6,0.3-2.3c0.2-0.8,1.1-1.2,1.9-1c0.8,0.2,1.2,1.1,1,1.9
		c-0.1,0.5-0.2,1-0.2,1.4c0,2.7,2.2,4.9,4.9,4.9c0.8,0,1.5,0.7,1.5,1.5S150.2,119.8,149.4,119.8z M149.2,107c-0.8,0-1.5-0.7-1.5-1.5
		c0-0.8,0.6-1.5,1.5-1.5l0.2,0c0.8,0,1.5,0.7,1.5,1.5s-0.7,1.5-1.5,1.5L149.2,107C149.2,107,149.2,107,149.2,107z"/>
	<path class="st24" d="M131.4,122.7c-4.4,0-7.9-3.6-7.9-7.9c0-0.8,0.1-1.6,0.3-2.3c0.2-0.8,1.1-1.2,1.9-1c0.8,0.2,1.2,1.1,1,1.9
		c-0.1,0.5-0.2,1-0.2,1.4c0,2.7,2.2,4.9,4.9,4.9c0.8,0,1.5,0.7,1.5,1.5S132.2,122.7,131.4,122.7z"/>
	<path class="st23" d="M139.5,91.4c-0.8,0-1.5-0.7-1.5-1.5c0-0.8,0.6-1.5,1.5-1.5l0.2,0c0.8,0,1.5,0.7,1.5,1.5s-0.7,1.5-1.5,1.5
		L139.5,91.4C139.5,91.4,139.5,91.4,139.5,91.4z"/>
</g>
</svg>
