<?xml version="1.0" encoding="utf-8"?>
<!-- Generator: Adobe Illustrator 19.2.1, SVG Export Plug-In . SVG Version: 6.00 Build 0)  -->
<!DOCTYPE svg PUBLIC "-//W3C//DTD SVG 1.1//EN" "http://www.w3.org/Graphics/SVG/1.1/DTD/svg11.dtd">
<svg version="1.1" id="Layer_1" xmlns="http://www.w3.org/2000/svg" xmlns:xlink="http://www.w3.org/1999/xlink" x="0px" y="0px"
	 viewBox="0 0 140.3 126.5" style="enable-background:new 0 0 140.3 126.5;" xml:space="preserve">
<style type="text/css">
	.st0{fill:#FFFFFF;}
	.st1{fill:none;stroke:#1D1D1B;stroke-miterlimit:10;}
	.st2{clip-path:url(#SVGID_2_);}
	.st3{fill:none;stroke:#000000;stroke-linecap:square;stroke-miterlimit:10;}
	.st4{clip-path:url(#SVGID_4_);}
	.st5{clip-path:url(#SVGID_6_);}
	.st6{fill:none;stroke:#000000;stroke-miterlimit:10;}
	.st7{clip-path:url(#SVGID_8_);}
	.st8{clip-path:url(#SVGID_10_);}
	.st9{clip-path:url(#SVGID_12_);}
	.st10{fill:#817FE2;}
	.st11{fill:none;stroke:#8989E0;stroke-width:4;stroke-linecap:round;stroke-miterlimit:10;stroke-dasharray:34,9,11,7,1,6;}
	.st12{fill:#6363B7;}
	.st13{fill:#5959AA;}
	.st14{fill:none;stroke:#8585E0;stroke-width:4;stroke-linecap:round;stroke-miterlimit:10;stroke-dasharray:12,8;}
	.st15{fill:none;stroke:#8585E0;stroke-width:4;stroke-linecap:round;stroke-miterlimit:10;stroke-dasharray:18,9,11,9,8;}
	.st16{fill:#D4145A;}
	.st17{fill:#EF4B96;}
	.st18{fill:#B17F4A;}
	.st19{fill:#936037;}
	.st20{fill:#2FAC66;}
	.st21{fill:#2B9958;}
	.st22{fill:#F4162C;}
	.st23{fill:#E30613;}
	.st24{fill:#C60517;}
</style>
<g>
	<circle class="st16" cx="21.4" cy="116" r="10.5"/>
	<g>
		<path class="st17" d="M21.4,123.9c-4.4,0-7.9-3.6-7.9-7.9c0-0.8,0.1-1.6,0.3-2.3c0.2-0.8,1.1-1.2,1.9-1c0.8,0.2,1.2,1.1,1,1.9
			c-0.1,0.5-0.2,1-0.2,1.4c0,2.7,2.2,4.9,4.9,4.9c0.8,0,1.5,0.7,1.5,1.5S22.3,123.9,21.4,123.9z M21.3,111.1c-0.8,0-1.5-0.7-1.5-1.5
			c0-0.8,0.6-1.5,1.5-1.5l0.2,0c0.8,0,1.5,0.7,1.5,1.5s-0.7,1.5-1.5,1.5L21.3,111.1C21.3,111.1,21.3,111.1,21.3,111.1z"/>
	</g>
	<g>
		<path class="st18" d="M136.7,54.4c-0.3-0.1-0.6-0.3-0.8,0.1c-1.8,3.7-5.2,4.4-8.8,4.9c-1.5,0.2-2.9,0.2-4.4-0.4
			c-1.7-0.7-1.8-1.2-1-2.7c2.1-3.7,4.7-6.9,8.2-9.3c5.5-3.7,7.6-9.2,8.4-15.5c0.8-5.6-0.6-10.8-3.1-15.7c-1-2.1-2.3-2.3-4-0.8
			c-0.2,0.1-0.3,0.3-0.5,0.5c-1.3,1.3-1.3,1.3-0.1,2.6c1.4,1.5,2.1,3.3,2.3,5.2c0.6,5.5,0.1,10.9-2,16.1c-0.9,2.2-2.5,3.6-4.7,4.4
			c-1.7,0.6-3.4,1.1-5.1,1.6c-0.8,0.2-1.1,0-1-0.8c0.3-3.1,0.3-6.2,0.3-9.3c-0.1-4.6-0.7-9-2.7-13.2c-1.1-2.4-1.7-5-1.8-7.6
			c-0.1-4.9,1.7-7.3,6.3-8.7c0.7-0.2,1.4-0.4,2.1-0.5c1.1-0.1,1.3-0.7,1.1-1.6c-0.3-1.3-0.7-2.6-1.8-3.5c-0.3,0-0.6,0-0.9,0
			c-0.3,0.4-0.7,0.5-1.2,0.7c-7.6,2.2-12.1,9.5-10.5,17.3c0.7,3.2,1.6,6.4,2.3,9.6c0.4,1.7,0.6,3.4,0.4,5.2c-0.1,1.2-0.8,1.8-2,1.8
			c-1.3,0-2.5-0.5-3.6-1.2c-4.5-2.6-8.1-6.1-11-10.4c-2.4-3.5-3.9-7.2-2.9-11.6c0-0.2,0.1-0.4-0.1-0.5c-1.1-0.8-2.3-1.3-3.7-1
			c-1.2,0.3-1.9,1.3-2.1,2.5c-0.2,1.2-0.2,2.3,0,3.5c1.4,8,4.9,14.5,11.9,19c2.6,1.7,5.5,2.8,8.3,4.2c2.6,1.3,5,2.8,5.8,5.8
			c0.7,2.6,0.4,5.1-0.3,7.7c-1.8,7-7.3,10.5-12.8,14.3c-0.4-0.6-0.3-1.2-0.3-1.7c-0.2-3.1-0.5-6.2-1-9.2c-0.5-3.4-1.5-6.5-4.3-8.9
			c-2.4-2.1-4.5-1.5-6.9-0.4c-0.9,0.4-1.2,3.2-0.5,3.9c0.1,0.1,0.3,0.1,0.4,0.1c2.2,0.2,3.5,1.5,4.2,3.4c1.8,5.1,3.5,10.2,3,15.7
			c-0.1,0.6-0.3,1.2-0.7,1.7c-2.4,2.7-4.8,5.4-7.3,8.2c-0.4,0.5-0.6,1-0.7,1.7c-0.1,2.4,0.6,3.3,3.3,4.4c0.7,0,1.4,0,2.1,0
			c1.2-0.2,2-1.1,2.7-1.9c5.2-5.6,10.4-11.2,15.5-16.8c1.3-1.5,3-2,4.7-2.4c2.4-0.6,4.9-0.8,7.4-0.4c5.5,0.9,10.3-0.9,14.8-3.8
			c0.8-0.5,1.5-1.3,2.5-1.6c0-0.4,0-0.8,0-1.2C139.6,55.9,138.1,55.2,136.7,54.4z"/>
		<path class="st19" d="M47.3,45.3c-2.7,1.5-4.7,3.5-5.5,6.6c-1.1,4.1-1.4,8.4-1.8,12.6c0,0.1,0,0.2,0,0.2c1.4-0.3,2.8-0.4,4.2-0.4
			h1c0.3-3.8,1.7-7.4,3-11c0.7-1.8,2-3.1,4.2-3.2c0.2,0,0.4,0,0.5-0.2c0.3-0.4,0.3-2.8,0.1-3.2C52.2,45.6,48.5,44.6,47.3,45.3z"/>
		<path class="st19" d="M25.9,50.2c-0.7-4-0.2-7.6,3.6-10c1-0.6,1.9-1.1,3-1.6c3.8-1.6,7.5-3.2,10.6-5.9c5.6-4.8,8.7-11,9-18.4
			c0.1-1.4-0.2-2.7-1.6-3.3c-1.4-0.7-2.7-0.2-4,0.5c-0.4,0.2-0.4,0.6-0.3,1c0.6,2.7,0.1,5.3-1.1,7.7c-2.5,5.2-6.5,9-11.1,12.2
			c-1.6,1.1-3.3,2.1-5.3,2.2c-1.4,0.1-2.2-0.6-2.2-2.1c-0.1-1.5,0.1-3,0.4-4.4c0.7-3,1.6-6,2.3-9c1.3-5.7-0.4-10.4-4.7-14.2
			c-1.8-1.6-4-2.5-6.3-3.2c-1.6-0.5-2.2-0.4-2.8,1.1c-0.3,0.6-0.5,1.2-0.6,1.9c-0.2,0.7-0.1,1.4,0.9,1.4c0.7,0,1.4,0.3,2,0.5
			c5.1,1.3,7.2,4.4,6.6,9.6c-0.3,2.6-1.1,5.1-2.3,7.5c-1.2,2.6-1.7,5.3-2,8.1c-0.4,4.1-0.2,8.2,0.1,12.3c0.1,0.9-0.2,1.1-1,0.9
			c-1.9-0.5-3.7-1-5.6-1.7c-2-0.8-3.4-2.1-4.2-4.1c-2.1-4.9-2.6-10.1-2-15.4c0.2-1.9,0.9-3.7,2.2-5.2c0.4-0.4,1.3-0.5,1.1-1.3
			c-0.2-0.6-0.8-1-1.2-1.4c-0.4-0.3-0.8-0.7-1.2-0.9c-1.1-0.6-2-0.4-2.7,0.6c-0.3,0.4-0.5,0.8-0.7,1.2c-2.3,4.7-3.6,9.5-2.8,14.8
			c0.9,6,3,11.2,8.2,14.7c3.5,2.3,6.2,5.3,8.4,8.9c1,1.7,0.9,2.2-1.1,2.9c-0.3,0.1-0.5,0.2-0.8,0.2c-2.7,0.5-5.3,0-7.9-0.9
			c-1.8-0.7-3.4-1.7-4.2-3.6c-0.2-0.5-0.5-0.4-0.9-0.2c-1.4,0.7-2.7,1.4-3.6,2.8c0,0.4,0,0.8,0,1.2c1.6,0.9,3,2,4.6,2.8
			c3.7,1.8,7.5,3.2,11.7,2.5c2.7-0.4,5.3-0.3,8,0.2c2.2,0.5,4.2,1.3,5.8,3.1c0.5,0.5,1,1,1.4,1.5c2-1.2,4.2-2.2,6.6-2.8
			c-2-1.3-3.9-2.7-5.7-4.2C28.9,58.3,26.7,54.7,25.9,50.2z"/>
	</g>
</g>
</svg>
