<?xml version="1.0" encoding="utf-8"?>
<!-- Generator: Adobe Illustrator 19.2.1, SVG Export Plug-In . SVG Version: 6.00 Build 0)  -->
<!DOCTYPE svg PUBLIC "-//W3C//DTD SVG 1.1//EN" "http://www.w3.org/Graphics/SVG/1.1/DTD/svg11.dtd">
<svg version="1.1" id="Layer_1" xmlns="http://www.w3.org/2000/svg" xmlns:xlink="http://www.w3.org/1999/xlink" x="0px" y="0px"
	 viewBox="0 0 132.8 187.5" style="enable-background:new 0 0 132.8 187.5;" xml:space="preserve">
<style type="text/css">
	.st0{fill:#FFFFFF;}
	.st1{fill:none;stroke:#1D1D1B;stroke-miterlimit:10;}
	.st2{clip-path:url(#SVGID_2_);}
	.st3{fill:none;stroke:#000000;stroke-linecap:square;stroke-miterlimit:10;}
	.st4{clip-path:url(#SVGID_4_);}
	.st5{clip-path:url(#SVGID_6_);}
	.st6{fill:none;stroke:#000000;stroke-miterlimit:10;}
	.st7{clip-path:url(#SVGID_8_);}
	.st8{clip-path:url(#SVGID_10_);}
	.st9{clip-path:url(#SVGID_12_);}
	.st10{fill:#817FE2;}
	.st11{fill:none;stroke:#8989E0;stroke-width:4;stroke-linecap:round;stroke-miterlimit:10;stroke-dasharray:34,9,11,7,1,6;}
	.st12{fill:#6363B7;}
	.st13{fill:#5959AA;}
	.st14{fill:none;stroke:#8585E0;stroke-width:4;stroke-linecap:round;stroke-miterlimit:10;stroke-dasharray:12,8;}
	.st15{fill:none;stroke:#8585E0;stroke-width:4;stroke-linecap:round;stroke-miterlimit:10;stroke-dasharray:18,9,11,9,8;}
	.st16{fill:#D4145A;}
	.st17{fill:#EF4B96;}
	.st18{fill:#B17F4A;}
	.st19{fill:#936037;}
	.st20{fill:#2FAC66;}
	.st21{fill:#2B9958;}
	.st22{fill:#F4162C;}
	.st23{fill:#E30613;}
	.st24{fill:#C60517;}
</style>
<g>
	<path class="st10" d="M91.2,32.2H67.5c-4,0-7.2,3.2-7.2,7.2v140.8c0,4,3.2,7.2,7.2,7.2h23.8c4,0,7.2-3.2,7.2-7.2V39.5
		C98.5,35.5,95.2,32.2,91.2,32.2z"/>
	<line class="st11" x1="68.1" y1="79.7" x2="68.1" y2="172.7"/>
	<polygon class="st12" points="55,108.5 47.8,92.8 30.8,95.4 62.2,37.3 86.4,50.4 	"/>
	<polygon class="st12" points="113,96.2 96.2,92.1 87.8,107.2 61.3,46.8 86.6,35.7 	"/>
	<path class="st10" d="M64.5,56.4c-6.8-8.9,4.8-31,20.7-44.7c14-12.1,31.2-17.7,42.2-2.4C153.6,45.9,77.3,73.1,64.5,56.4z"/>
	<path class="st13" d="M90.2,51.7c-2.8-1.7,24.2-30.5,29.2-23C126.6,39.4,93,53.4,90.2,51.7z"/>
	<path class="st10" d="M77.8,51.6c2-10.6-20.6-19.4-36.5-29.4c-16.4-10.4-38.1-3-40.9,16C-6.2,82.7,74,72.2,77.8,51.6z"/>
	<path class="st14" d="M40.3,27.2c-13.2-8.4-30.8-2.4-33,12.9"/>
	<path class="st15" d="M73.4,36.8c3-6.7,8.5-14.2,15-19.8c6.3-5.5,13.5-9.2,20.1-8.9"/>
	<path class="st13" d="M52.7,59c1.7-2.8-35.4-16.2-36.5-7.3C14.7,64.6,51,61.8,52.7,59z"/>
</g>
</svg>
