<?xml version="1.0" encoding="utf-8"?>
<!-- Generator: Adobe Illustrator 19.2.1, SVG Export Plug-In . SVG Version: 6.00 Build 0)  -->
<!DOCTYPE svg PUBLIC "-//W3C//DTD SVG 1.1//EN" "http://www.w3.org/Graphics/SVG/1.1/DTD/svg11.dtd">
<svg version="1.1" id="Layer_1" xmlns="http://www.w3.org/2000/svg" xmlns:xlink="http://www.w3.org/1999/xlink" x="0px" y="0px"
	 viewBox="0 0 15.8 12.9" style="enable-background:new 0 0 15.8 12.9;" xml:space="preserve">
<style type="text/css">
	.st0{fill:#FFFFFF;}
	.st1{fill:none;stroke:#1D1D1B;stroke-miterlimit:10;}
	.st2{clip-path:url(#SVGID_2_);}
	.st3{fill:none;stroke:#000000;stroke-linecap:square;stroke-miterlimit:10;}
	.st4{clip-path:url(#SVGID_4_);}
	.st5{clip-path:url(#SVGID_6_);}
	.st6{fill:none;stroke:#000000;stroke-miterlimit:10;}
	.st7{clip-path:url(#SVGID_8_);}
	.st8{clip-path:url(#SVGID_10_);}
	.st9{clip-path:url(#SVGID_12_);}
	.st10{fill:#817FE2;}
	.st11{fill:none;stroke:#8989E0;stroke-width:4;stroke-linecap:round;stroke-miterlimit:10;stroke-dasharray:34,9,11,7,1,6;}
	.st12{fill:#6363B7;}
	.st13{fill:#5959AA;}
	.st14{fill:none;stroke:#8585E0;stroke-width:4;stroke-linecap:round;stroke-miterlimit:10;stroke-dasharray:12,8;}
	.st15{fill:none;stroke:#8585E0;stroke-width:4;stroke-linecap:round;stroke-miterlimit:10;stroke-dasharray:18,9,11,9,8;}
	.st16{fill:#D4145A;}
	.st17{fill:#EF4B96;}
	.st18{fill:#B17F4A;}
	.st19{fill:#936037;}
	.st20{fill:#2FAC66;}
	.st21{fill:#2B9958;}
	.st22{fill:#F4162C;}
	.st23{fill:#E30613;}
	.st24{fill:#C60517;}
</style>
<g>
	<path class="st0" d="M15.8,1.5C15.3,1.8,14.6,2,14,2c0.7-0.4,1.2-1,1.4-1.8c-0.6,0.4-1.3,0.6-2.1,0.8c-0.6-0.6-1.4-1-2.4-1
		C9.2,0,7.7,1.5,7.7,3.2c0,0.3,0,0.5,0.1,0.7C5.1,3.9,2.7,2.6,1.1,0.6c-0.3,0.5-0.4,1-0.4,1.6c0,1.1,0.6,2.1,1.4,2.7
		c-0.5,0-1-0.2-1.5-0.4c0,0,0,0,0,0c0,1.6,1.1,2.9,2.6,3.2C3,7.8,2.7,7.9,2.4,7.9c-0.2,0-0.4,0-0.6-0.1c0.4,1.3,1.6,2.2,3,2.3
		c-1.1,0.9-2.5,1.4-4,1.4c-0.3,0-0.5,0-0.8,0c1.4,0.9,3.1,1.5,5,1.5c6,0,9.2-4.9,9.2-9.2c0-0.1,0-0.3,0-0.4
		C14.8,2.7,15.4,2.2,15.8,1.5z"/>
</g>
</svg>
